{"glyphs":{"0":{"ha":780,"x_min":64,"x_max":715,"o":"m 498 130 l 498 174 l 541 174 l 541 304 l 585 304 l 585 564 l 541 564 l 541 694 l 498 694 l 498 738 l 281 738 l 281 694 l 237 694 l 237 564 l 194 564 l 194 304 l 237 304 l 237 174 l 281 174 l 281 130 l 498 130 m 237 0 l 237 43 l 151 43 l 151 130 l 107 130 l 107 260 l 64 260 l 64 608 l 107 608 l 107 738 l 151 738 l 151 825 l 237 825 l 237 868 l 541 868 l 541 825 l 628 825 l 628 738 l 671 738 l 671 608 l 715 608 l 715 260 l 671 260 l 671 130 l 628 130 l 628 43 l 541 43 l 541 0 l 237 0 z "},"1":{"ha":381,"x_min":41,"x_max":301,"o":"m 171 0 l 171 651 l 41 651 l 41 738 l 84 738 l 84 781 l 127 781 l 127 825 l 171 825 l 171 868 l 301 868 l 301 0 l 171 0 z "},"2":{"ha":741,"x_min":68,"x_max":675,"o":"m 68 0 l 68 130 l 111 130 l 111 174 l 155 174 l 155 217 l 198 217 l 198 260 l 241 260 l 241 304 l 285 304 l 285 347 l 328 347 l 328 391 l 372 391 l 372 434 l 415 434 l 415 477 l 458 477 l 458 521 l 502 521 l 502 694 l 458 694 l 458 738 l 285 738 l 285 694 l 241 694 l 241 651 l 198 651 l 198 564 l 68 564 l 68 651 l 111 651 l 111 738 l 155 738 l 155 781 l 198 781 l 198 825 l 241 825 l 241 868 l 502 868 l 502 825 l 545 825 l 545 781 l 589 781 l 589 738 l 632 738 l 632 477 l 589 477 l 589 434 l 545 434 l 545 391 l 502 391 l 502 347 l 458 347 l 458 304 l 415 304 l 415 260 l 372 260 l 372 217 l 328 217 l 328 174 l 285 174 l 285 130 l 675 130 l 675 0 l 68 0 z "},"3":{"ha":709,"x_min":65,"x_max":629,"o":"m 195 0 l 195 43 l 152 43 l 152 87 l 109 87 l 109 130 l 65 130 l 65 217 l 195 217 l 195 174 l 239 174 l 239 130 l 456 130 l 456 174 l 499 174 l 499 347 l 456 347 l 456 391 l 282 391 l 282 521 l 456 521 l 456 564 l 499 564 l 499 694 l 456 694 l 456 738 l 239 738 l 239 694 l 195 694 l 195 651 l 65 651 l 65 738 l 109 738 l 109 781 l 152 781 l 152 825 l 195 825 l 195 868 l 456 868 l 456 825 l 543 825 l 543 781 l 586 781 l 586 738 l 629 738 l 629 521 l 586 521 l 586 477 l 543 477 l 543 434 l 586 434 l 586 391 l 629 391 l 629 130 l 586 130 l 586 87 l 543 87 l 543 43 l 456 43 l 456 0 l 195 0 z "},"4":{"ha":723,"x_min":33,"x_max":684,"o":"m 423 347 l 423 651 l 380 651 l 380 608 l 336 608 l 336 564 l 293 564 l 293 521 l 250 521 l 250 477 l 206 477 l 206 434 l 163 434 l 163 347 l 423 347 m 423 0 l 423 217 l 33 217 l 33 477 l 76 477 l 76 521 l 119 521 l 119 564 l 163 564 l 163 608 l 206 608 l 206 651 l 250 651 l 250 694 l 293 694 l 293 738 l 336 738 l 336 781 l 380 781 l 380 825 l 423 825 l 423 868 l 553 868 l 553 347 l 684 347 l 684 217 l 553 217 l 553 0 l 423 0 z "},"5":{"ha":720,"x_min":60,"x_max":667,"o":"m 233 0 l 233 43 l 146 43 l 146 87 l 103 87 l 103 130 l 60 130 l 60 260 l 190 260 l 190 174 l 233 174 l 233 130 l 407 130 l 407 174 l 494 174 l 494 260 l 537 260 l 537 347 l 494 347 l 494 391 l 450 391 l 450 434 l 407 434 l 407 477 l 103 477 l 103 651 l 146 651 l 146 781 l 190 781 l 190 868 l 581 868 l 581 738 l 277 738 l 277 651 l 233 651 l 233 608 l 450 608 l 450 564 l 537 564 l 537 521 l 581 521 l 581 477 l 624 477 l 624 391 l 667 391 l 667 217 l 624 217 l 624 130 l 581 130 l 581 87 l 537 87 l 537 43 l 450 43 l 450 0 l 233 0 z "},"6":{"ha":751,"x_min":64,"x_max":671,"o":"m 498 130 l 498 174 l 541 174 l 541 347 l 498 347 l 498 391 l 281 391 l 281 347 l 237 347 l 237 174 l 281 174 l 281 130 l 498 130 m 237 0 l 237 43 l 151 43 l 151 130 l 107 130 l 107 260 l 64 260 l 64 608 l 107 608 l 107 738 l 151 738 l 151 825 l 237 825 l 237 868 l 541 868 l 541 825 l 628 825 l 628 738 l 671 738 l 671 651 l 541 651 l 541 694 l 498 694 l 498 738 l 281 738 l 281 694 l 237 694 l 237 564 l 194 564 l 194 434 l 237 434 l 237 477 l 281 477 l 281 521 l 585 521 l 585 477 l 628 477 l 628 434 l 671 434 l 671 130 l 628 130 l 628 43 l 541 43 l 541 0 l 237 0 z "},"7":{"ha":732,"x_min":1,"x_max":652,"o":"m 175 0 l 175 174 l 218 174 l 218 260 l 262 260 l 262 391 l 305 391 l 305 477 l 349 477 l 349 564 l 392 564 l 392 651 l 435 651 l 435 694 l 479 694 l 479 738 l 1 738 l 1 868 l 652 868 l 652 738 l 609 738 l 609 651 l 566 651 l 566 608 l 522 608 l 522 521 l 479 521 l 479 434 l 435 434 l 435 347 l 392 347 l 392 260 l 349 260 l 349 130 l 305 130 l 305 0 l 175 0 z "},"8":{"ha":728,"x_min":61,"x_max":669,"o":"m 495 130 l 495 174 l 538 174 l 538 347 l 495 347 l 495 391 l 452 391 l 452 434 l 278 434 l 278 391 l 235 391 l 235 347 l 191 347 l 191 174 l 235 174 l 235 130 l 495 130 m 452 521 l 452 564 l 495 564 l 495 694 l 452 694 l 452 738 l 278 738 l 278 694 l 235 694 l 235 564 l 278 564 l 278 521 l 452 521 m 235 0 l 235 43 l 148 43 l 148 87 l 104 87 l 104 174 l 61 174 l 61 347 l 104 347 l 104 434 l 148 434 l 148 477 l 191 477 l 191 521 l 148 521 l 148 564 l 104 564 l 104 694 l 148 694 l 148 781 l 191 781 l 191 825 l 278 825 l 278 868 l 452 868 l 452 825 l 538 825 l 538 781 l 582 781 l 582 694 l 625 694 l 625 564 l 582 564 l 582 521 l 538 521 l 538 477 l 582 477 l 582 434 l 625 434 l 625 347 l 669 347 l 669 174 l 625 174 l 625 87 l 582 87 l 582 43 l 495 43 l 495 0 l 235 0 z "},"9":{"ha":745,"x_min":72,"x_max":680,"o":"m 463 477 l 463 521 l 506 521 l 506 694 l 463 694 l 463 738 l 245 738 l 245 694 l 202 694 l 202 521 l 245 521 l 245 477 l 463 477 m 202 0 l 202 43 l 115 43 l 115 130 l 72 130 l 72 217 l 202 217 l 202 174 l 245 174 l 245 130 l 463 130 l 463 174 l 506 174 l 506 304 l 549 304 l 549 434 l 506 434 l 506 391 l 463 391 l 463 347 l 159 347 l 159 391 l 115 391 l 115 477 l 72 477 l 72 694 l 115 694 l 115 825 l 202 825 l 202 868 l 506 868 l 506 825 l 593 825 l 593 738 l 636 738 l 636 608 l 680 608 l 680 260 l 636 260 l 636 130 l 593 130 l 593 43 l 506 43 l 506 0 l 202 0 z "}," ":{"ha":393,"x_min":0,"x_max":0,"o":""},"!":{"ha":288,"x_min":77,"x_max":208,"o":"m 77 0 l 77 130 l 208 130 l 208 0 l 77 0 m 77 260 l 77 868 l 208 868 l 208 260 l 77 260 z "},"\"":{"ha":384,"x_min":43,"x_max":304,"o":"m 43 651 l 43 868 l 130 868 l 130 651 l 43 651 m 217 651 l 217 868 l 304 868 l 304 651 l 217 651 z "},"#":{"ha":1020,"x_min":30,"x_max":985,"o":"m 594 304 l 594 434 l 637 434 l 637 564 l 420 564 l 420 434 l 377 434 l 377 304 l 594 304 m 117 0 l 117 87 l 160 87 l 160 217 l 30 217 l 30 304 l 247 304 l 247 434 l 290 434 l 290 564 l 160 564 l 160 651 l 377 651 l 377 781 l 420 781 l 420 868 l 551 868 l 551 781 l 507 781 l 507 651 l 724 651 l 724 781 l 768 781 l 768 868 l 898 868 l 898 781 l 854 781 l 854 651 l 985 651 l 985 564 l 768 564 l 768 434 l 724 434 l 724 304 l 854 304 l 854 217 l 637 217 l 637 87 l 594 87 l 594 0 l 464 0 l 464 87 l 507 87 l 507 217 l 290 217 l 290 87 l 247 87 l 247 0 l 117 0 z "},"$":{"ha":696,"x_min":69,"x_max":633,"o":"m 460 130 l 460 174 l 503 174 l 503 304 l 460 304 l 460 347 l 416 347 l 416 130 l 460 130 m 330 521 l 330 738 l 243 738 l 243 694 l 199 694 l 199 564 l 286 564 l 286 521 l 330 521 m 330 -87 l 330 0 l 243 0 l 243 43 l 156 43 l 156 87 l 113 87 l 113 130 l 69 130 l 69 217 l 199 217 l 199 174 l 243 174 l 243 130 l 330 130 l 330 391 l 286 391 l 286 434 l 156 434 l 156 477 l 113 477 l 113 521 l 69 521 l 69 738 l 113 738 l 113 781 l 156 781 l 156 825 l 199 825 l 199 868 l 330 868 l 330 955 l 416 955 l 416 868 l 503 868 l 503 825 l 547 825 l 547 781 l 590 781 l 590 694 l 460 694 l 460 738 l 416 738 l 416 477 l 503 477 l 503 434 l 590 434 l 590 347 l 633 347 l 633 130 l 590 130 l 590 87 l 547 87 l 547 43 l 460 43 l 460 0 l 416 0 l 416 -87 l 330 -87 z "},"%":{"ha":882,"x_min":64,"x_max":802,"o":"m 715 87 l 715 217 l 628 217 l 628 87 l 715 87 m 628 0 l 628 43 l 585 43 l 585 87 l 541 87 l 541 217 l 585 217 l 585 260 l 628 260 l 628 304 l 715 304 l 715 260 l 758 260 l 758 217 l 802 217 l 802 87 l 758 87 l 758 43 l 715 43 l 715 0 l 628 0 m 237 651 l 237 781 l 151 781 l 151 651 l 237 651 m 151 564 l 151 608 l 107 608 l 107 651 l 64 651 l 64 781 l 107 781 l 107 825 l 151 825 l 151 868 l 237 868 l 237 825 l 281 825 l 281 781 l 324 781 l 324 651 l 281 651 l 281 608 l 237 608 l 237 564 l 151 564 m 64 0 l 64 43 l 107 43 l 107 130 l 151 130 l 151 174 l 194 174 l 194 217 l 237 217 l 237 304 l 281 304 l 281 347 l 324 347 l 324 391 l 368 391 l 368 477 l 411 477 l 411 521 l 454 521 l 454 564 l 498 564 l 498 651 l 541 651 l 541 694 l 585 694 l 585 738 l 628 738 l 628 825 l 671 825 l 671 868 l 802 868 l 802 825 l 758 825 l 758 738 l 715 738 l 715 694 l 671 694 l 671 651 l 628 651 l 628 564 l 585 564 l 585 521 l 541 521 l 541 477 l 498 477 l 498 391 l 454 391 l 454 347 l 411 347 l 411 304 l 368 304 l 368 217 l 324 217 l 324 174 l 281 174 l 281 130 l 237 130 l 237 43 l 194 43 l 194 0 l 64 0 z "},"&":{"ha":795,"x_min":61,"x_max":755,"o":"m 235 0 l 235 43 l 148 43 l 148 87 l 104 87 l 104 174 l 61 174 l 61 347 l 104 347 l 104 434 l 148 434 l 148 477 l 191 477 l 191 521 l 148 521 l 148 564 l 104 564 l 104 694 l 148 694 l 148 781 l 191 781 l 191 825 l 278 825 l 278 868 l 452 868 l 452 825 l 538 825 l 538 781 l 582 781 l 582 738 l 625 738 l 625 608 l 582 608 l 582 564 l 452 564 l 452 608 l 495 608 l 495 694 l 452 694 l 452 738 l 278 738 l 278 694 l 235 694 l 235 564 l 278 564 l 278 521 l 365 521 l 365 434 l 278 434 l 278 391 l 235 391 l 235 347 l 191 347 l 191 174 l 235 174 l 235 130 l 495 130 l 495 174 l 538 174 l 538 304 l 495 304 l 495 391 l 755 391 l 755 304 l 669 304 l 669 130 l 625 130 l 625 87 l 582 87 l 582 43 l 538 43 l 538 0 l 235 0 z "},"'":{"ha":210,"x_min":43,"x_max":130,"o":"m 43 651 l 43 868 l 130 868 l 130 651 l 43 651 z "},"(":{"ha":446,"x_min":62,"x_max":366,"o":"m 236 0 l 236 43 l 193 43 l 193 87 l 149 87 l 149 130 l 106 130 l 106 260 l 62 260 l 62 608 l 106 608 l 106 738 l 149 738 l 149 781 l 193 781 l 193 825 l 236 825 l 236 868 l 366 868 l 366 825 l 323 825 l 323 781 l 279 781 l 279 694 l 236 694 l 236 564 l 193 564 l 193 304 l 236 304 l 236 174 l 279 174 l 279 87 l 323 87 l 323 43 l 366 43 l 366 0 l 236 0 z "},")":{"ha":416,"x_min":47,"x_max":351,"o":"m 47 0 l 47 43 l 91 43 l 91 87 l 134 87 l 134 174 l 178 174 l 178 304 l 221 304 l 221 564 l 178 564 l 178 694 l 134 694 l 134 781 l 91 781 l 91 825 l 47 825 l 47 868 l 178 868 l 178 825 l 221 825 l 221 781 l 264 781 l 264 738 l 308 738 l 308 608 l 351 608 l 351 260 l 308 260 l 308 130 l 264 130 l 264 87 l 221 87 l 221 43 l 178 43 l 178 0 l 47 0 z "},"*":{"ha":412,"x_min":28,"x_max":332,"o":"m 72 608 l 72 694 l 115 694 l 115 738 l 72 738 l 72 781 l 28 781 l 28 825 l 159 825 l 159 911 l 202 911 l 202 825 l 332 825 l 332 781 l 289 781 l 289 738 l 245 738 l 245 694 l 289 694 l 289 608 l 245 608 l 245 651 l 202 651 l 202 694 l 159 694 l 159 651 l 115 651 l 115 608 l 72 608 z "},"+":{"ha":711,"x_min":20,"x_max":671,"o":"m 281 43 l 281 304 l 20 304 l 20 434 l 281 434 l 281 694 l 411 694 l 411 434 l 671 434 l 671 304 l 411 304 l 411 43 l 281 43 z "},",":{"ha":244,"x_min":37,"x_max":167,"o":"m 37 -130 l 37 -87 l 80 -87 l 80 -43 l 123 -43 l 123 0 l 37 0 l 37 130 l 167 130 l 167 -87 l 123 -87 l 123 -130 l 37 -130 z "},"-":{"ha":572,"x_min":47,"x_max":525,"o":"m 525 304 l 47 304 l 47 434 l 525 434 l 525 304 z "},".":{"ha":232,"x_min":37,"x_max":167,"o":"m 37 0 l 37 130 l 167 130 l 167 0 l 37 0 z "},"/":{"ha":650,"x_min":-14,"x_max":594,"o":"m -14 -87 l -14 0 l 30 0 l 30 87 l 73 87 l 73 174 l 117 174 l 117 260 l 160 260 l 160 347 l 203 347 l 203 434 l 247 434 l 247 521 l 290 521 l 290 608 l 334 608 l 334 694 l 377 694 l 377 781 l 420 781 l 420 868 l 464 868 l 464 955 l 594 955 l 594 868 l 551 868 l 551 781 l 507 781 l 507 694 l 464 694 l 464 608 l 420 608 l 420 521 l 377 521 l 377 434 l 334 434 l 334 347 l 290 347 l 290 260 l 247 260 l 247 174 l 203 174 l 203 87 l 160 87 l 160 0 l 117 0 l 117 -87 l -14 -87 z "},":":{"ha":264,"x_min":68,"x_max":198,"o":"m 68 43 l 68 174 l 198 174 l 198 43 l 68 43 m 68 434 l 68 564 l 198 564 l 198 434 l 68 434 z "},";":{"ha":275,"x_min":68,"x_max":198,"o":"m 68 -130 l 68 -87 l 111 -87 l 111 -43 l 155 -43 l 155 0 l 68 0 l 68 130 l 198 130 l 198 -87 l 155 -87 l 155 -130 l 68 -130 m 68 477 l 68 608 l 198 608 l 198 477 l 68 477 z "},"<":{"ha":496,"x_min":26,"x_max":416,"o":"m 330 87 l 330 130 l 286 130 l 286 174 l 243 174 l 243 217 l 199 217 l 199 260 l 156 260 l 156 304 l 113 304 l 113 347 l 69 347 l 69 391 l 26 391 l 26 434 l 69 434 l 69 477 l 113 477 l 113 521 l 156 521 l 156 564 l 199 564 l 199 608 l 243 608 l 243 651 l 286 651 l 286 694 l 330 694 l 330 738 l 373 738 l 373 694 l 416 694 l 416 651 l 373 651 l 373 608 l 330 608 l 330 564 l 286 564 l 286 521 l 243 521 l 243 477 l 199 477 l 199 434 l 156 434 l 156 391 l 199 391 l 199 347 l 243 347 l 243 304 l 286 304 l 286 260 l 330 260 l 330 217 l 373 217 l 373 174 l 416 174 l 416 130 l 373 130 l 373 87 l 330 87 z "},"=":{"ha":827,"x_min":66,"x_max":761,"o":"m 66 174 l 66 304 l 761 304 l 761 174 l 66 174 m 66 477 l 66 608 l 761 608 l 761 477 l 66 477 z "},">":{"ha":496,"x_min":66,"x_max":457,"o":"m 110 87 l 110 130 l 66 130 l 66 174 l 110 174 l 110 217 l 153 217 l 153 260 l 197 260 l 197 304 l 240 304 l 240 347 l 283 347 l 283 391 l 327 391 l 327 434 l 283 434 l 283 477 l 240 477 l 240 521 l 197 521 l 197 564 l 153 564 l 153 608 l 110 608 l 110 651 l 66 651 l 66 694 l 110 694 l 110 738 l 153 738 l 153 694 l 197 694 l 197 651 l 240 651 l 240 608 l 283 608 l 283 564 l 327 564 l 327 521 l 370 521 l 370 477 l 414 477 l 414 434 l 457 434 l 457 391 l 414 391 l 414 347 l 370 347 l 370 304 l 327 304 l 327 260 l 283 260 l 283 217 l 240 217 l 240 174 l 197 174 l 197 130 l 153 130 l 153 87 l 110 87 z "},"?":{"ha":720,"x_min":33,"x_max":640,"o":"m 293 0 l 293 130 l 423 130 l 423 0 l 293 0 m 293 260 l 293 391 l 336 391 l 336 434 l 380 434 l 380 477 l 423 477 l 423 521 l 467 521 l 467 564 l 510 564 l 510 694 l 467 694 l 467 738 l 250 738 l 250 694 l 206 694 l 206 651 l 163 651 l 163 564 l 33 564 l 33 651 l 76 651 l 76 738 l 119 738 l 119 781 l 163 781 l 163 825 l 206 825 l 206 868 l 467 868 l 467 825 l 553 825 l 553 781 l 597 781 l 597 738 l 640 738 l 640 521 l 597 521 l 597 477 l 553 477 l 553 434 l 510 434 l 510 391 l 467 391 l 467 347 l 423 347 l 423 260 l 293 260 z "},"@":{"ha":821,"x_min":64,"x_max":758,"o":"m 454 217 l 454 260 l 498 260 l 498 521 l 368 521 l 368 477 l 324 477 l 324 260 l 368 260 l 368 217 l 454 217 m 281 -43 l 281 0 l 194 0 l 194 43 l 151 43 l 151 87 l 107 87 l 107 174 l 64 174 l 64 564 l 107 564 l 107 651 l 151 651 l 151 694 l 194 694 l 194 738 l 237 738 l 237 781 l 324 781 l 324 825 l 541 825 l 541 781 l 628 781 l 628 738 l 671 738 l 671 694 l 715 694 l 715 651 l 758 651 l 758 217 l 715 217 l 715 174 l 671 174 l 671 130 l 585 130 l 585 174 l 541 174 l 541 217 l 498 217 l 498 174 l 454 174 l 454 130 l 324 130 l 324 174 l 281 174 l 281 217 l 237 217 l 237 521 l 281 521 l 281 564 l 324 564 l 324 608 l 541 608 l 541 564 l 585 564 l 585 217 l 628 217 l 628 260 l 671 260 l 671 608 l 628 608 l 628 651 l 585 651 l 585 694 l 498 694 l 498 738 l 368 738 l 368 694 l 281 694 l 281 651 l 237 651 l 237 608 l 194 608 l 194 564 l 151 564 l 151 174 l 194 174 l 194 130 l 237 130 l 237 87 l 324 87 l 324 43 l 454 43 l 454 -43 l 281 -43 z "},"A":{"ha":914,"x_min":24,"x_max":849,"o":"m 589 391 l 589 434 l 545 434 l 545 521 l 502 521 l 502 608 l 458 608 l 458 694 l 415 694 l 415 608 l 372 608 l 372 521 l 328 521 l 328 434 l 285 434 l 285 391 l 589 391 m 24 0 l 24 130 l 68 130 l 68 217 l 111 217 l 111 347 l 155 347 l 155 434 l 198 434 l 198 521 l 241 521 l 241 608 l 285 608 l 285 694 l 328 694 l 328 781 l 372 781 l 372 868 l 502 868 l 502 781 l 545 781 l 545 694 l 589 694 l 589 608 l 632 608 l 632 521 l 675 521 l 675 434 l 719 434 l 719 347 l 762 347 l 762 217 l 806 217 l 806 130 l 849 130 l 849 0 l 719 0 l 719 87 l 675 87 l 675 174 l 632 174 l 632 260 l 241 260 l 241 174 l 198 174 l 198 87 l 155 87 l 155 0 l 24 0 z "},"B":{"ha":749,"x_min":77,"x_max":685,"o":"m 511 130 l 511 174 l 555 174 l 555 347 l 511 347 l 511 391 l 208 391 l 208 130 l 511 130 m 468 521 l 468 564 l 511 564 l 511 694 l 468 694 l 468 738 l 208 738 l 208 521 l 468 521 m 77 0 l 77 868 l 511 868 l 511 825 l 555 825 l 555 781 l 598 781 l 598 738 l 642 738 l 642 521 l 598 521 l 598 434 l 642 434 l 642 391 l 685 391 l 685 130 l 642 130 l 642 87 l 598 87 l 598 43 l 555 43 l 555 0 l 77 0 z "},"C":{"ha":897,"x_min":60,"x_max":841,"o":"m 363 0 l 363 43 l 233 43 l 233 87 l 190 87 l 190 130 l 146 130 l 146 174 l 103 174 l 103 260 l 60 260 l 60 608 l 103 608 l 103 694 l 146 694 l 146 738 l 190 738 l 190 781 l 233 781 l 233 825 l 363 825 l 363 868 l 581 868 l 581 825 l 711 825 l 711 781 l 754 781 l 754 694 l 798 694 l 798 651 l 841 651 l 841 608 l 667 608 l 667 651 l 624 651 l 624 694 l 537 694 l 537 738 l 407 738 l 407 694 l 320 694 l 320 651 l 277 651 l 277 608 l 233 608 l 233 521 l 190 521 l 190 347 l 233 347 l 233 260 l 277 260 l 277 217 l 320 217 l 320 174 l 407 174 l 407 130 l 537 130 l 537 174 l 624 174 l 624 217 l 667 217 l 667 260 l 841 260 l 841 217 l 798 217 l 798 174 l 754 174 l 754 87 l 711 87 l 711 43 l 581 43 l 581 0 l 363 0 z "},"D":{"ha":834,"x_min":77,"x_max":772,"o":"m 425 130 l 425 174 l 511 174 l 511 217 l 555 217 l 555 260 l 598 260 l 598 347 l 642 347 l 642 521 l 598 521 l 598 608 l 555 608 l 555 651 l 511 651 l 511 694 l 425 694 l 425 738 l 208 738 l 208 130 l 425 130 m 77 0 l 77 868 l 468 868 l 468 825 l 598 825 l 598 781 l 642 781 l 642 738 l 685 738 l 685 694 l 728 694 l 728 608 l 772 608 l 772 260 l 728 260 l 728 174 l 685 174 l 685 130 l 642 130 l 642 87 l 598 87 l 598 43 l 468 43 l 468 0 l 77 0 z "},"E":{"ha":678,"x_min":77,"x_max":598,"o":"m 77 0 l 77 868 l 598 868 l 598 738 l 208 738 l 208 521 l 598 521 l 598 391 l 208 391 l 208 130 l 598 130 l 598 0 l 77 0 z "},"F":{"ha":678,"x_min":77,"x_max":598,"o":"m 77 0 l 77 868 l 598 868 l 598 738 l 208 738 l 208 521 l 598 521 l 598 391 l 208 391 l 208 0 l 77 0 z "},"G":{"ha":905,"x_min":60,"x_max":841,"o":"m 363 0 l 363 43 l 233 43 l 233 87 l 190 87 l 190 130 l 146 130 l 146 174 l 103 174 l 103 260 l 60 260 l 60 608 l 103 608 l 103 694 l 146 694 l 146 738 l 190 738 l 190 781 l 233 781 l 233 825 l 363 825 l 363 868 l 581 868 l 581 825 l 711 825 l 711 781 l 754 781 l 754 694 l 798 694 l 798 651 l 841 651 l 841 608 l 667 608 l 667 651 l 624 651 l 624 694 l 537 694 l 537 738 l 407 738 l 407 694 l 320 694 l 320 651 l 277 651 l 277 608 l 233 608 l 233 521 l 190 521 l 190 347 l 233 347 l 233 260 l 277 260 l 277 217 l 320 217 l 320 174 l 407 174 l 407 130 l 537 130 l 537 174 l 624 174 l 624 217 l 667 217 l 667 260 l 711 260 l 711 347 l 450 347 l 450 477 l 841 477 l 841 217 l 798 217 l 798 174 l 754 174 l 754 87 l 711 87 l 711 43 l 581 43 l 581 0 l 363 0 z "},"H":{"ha":808,"x_min":77,"x_max":728,"o":"m 77 0 l 77 868 l 208 868 l 208 521 l 598 521 l 598 868 l 728 868 l 728 0 l 598 0 l 598 391 l 208 391 l 208 0 l 77 0 z "},"I":{"ha":288,"x_min":77,"x_max":208,"o":"m 77 0 l 77 868 l 208 868 l 208 0 l 77 0 z "},"J":{"ha":578,"x_min":20,"x_max":498,"o":"m 151 0 l 151 43 l 64 43 l 64 130 l 20 130 l 20 304 l 151 304 l 151 174 l 194 174 l 194 130 l 324 130 l 324 174 l 368 174 l 368 868 l 498 868 l 498 130 l 454 130 l 454 43 l 368 43 l 368 0 l 151 0 z "},"K":{"ha":924,"x_min":77,"x_max":859,"o":"m 77 0 l 77 868 l 208 868 l 208 477 l 251 477 l 251 521 l 294 521 l 294 564 l 338 564 l 338 608 l 381 608 l 381 651 l 425 651 l 425 694 l 468 694 l 468 738 l 511 738 l 511 781 l 555 781 l 555 825 l 598 825 l 598 868 l 772 868 l 772 825 l 728 825 l 728 781 l 685 781 l 685 738 l 642 738 l 642 694 l 598 694 l 598 651 l 555 651 l 555 608 l 511 608 l 511 564 l 468 564 l 468 521 l 425 521 l 425 434 l 468 434 l 468 391 l 511 391 l 511 347 l 555 347 l 555 304 l 598 304 l 598 260 l 642 260 l 642 217 l 685 217 l 685 174 l 728 174 l 728 130 l 772 130 l 772 87 l 815 87 l 815 43 l 859 43 l 859 0 l 685 0 l 685 43 l 642 43 l 642 87 l 598 87 l 598 130 l 555 130 l 555 174 l 511 174 l 511 217 l 468 217 l 468 260 l 425 260 l 425 304 l 381 304 l 381 347 l 338 347 l 338 391 l 294 391 l 294 347 l 251 347 l 251 304 l 208 304 l 208 0 l 77 0 z "},"L":{"ha":707,"x_min":77,"x_max":642,"o":"m 77 0 l 77 868 l 208 868 l 208 130 l 642 130 l 642 0 l 77 0 z "},"M":{"ha":982,"x_min":77,"x_max":902,"o":"m 77 0 l 77 868 l 294 868 l 294 738 l 338 738 l 338 651 l 381 651 l 381 521 l 425 521 l 425 391 l 468 391 l 468 217 l 511 217 l 511 391 l 555 391 l 555 521 l 598 521 l 598 651 l 642 651 l 642 738 l 685 738 l 685 868 l 902 868 l 902 0 l 772 0 l 772 651 l 728 651 l 728 564 l 685 564 l 685 391 l 642 391 l 642 217 l 598 217 l 598 87 l 555 87 l 555 0 l 425 0 l 425 87 l 381 87 l 381 217 l 338 217 l 338 391 l 294 391 l 294 564 l 251 564 l 251 651 l 208 651 l 208 0 l 77 0 z "},"N":{"ha":852,"x_min":77,"x_max":772,"o":"m 77 0 l 77 868 l 294 868 l 294 781 l 338 781 l 338 694 l 381 694 l 381 608 l 425 608 l 425 521 l 468 521 l 468 434 l 511 434 l 511 347 l 555 347 l 555 260 l 598 260 l 598 174 l 642 174 l 642 868 l 772 868 l 772 0 l 555 0 l 555 87 l 511 87 l 511 174 l 468 174 l 468 260 l 425 260 l 425 347 l 381 347 l 381 434 l 338 434 l 338 521 l 294 521 l 294 608 l 251 608 l 251 694 l 208 694 l 208 0 l 77 0 z "},"O":{"ha":947,"x_min":60,"x_max":884,"o":"m 537 130 l 537 174 l 624 174 l 624 217 l 667 217 l 667 260 l 711 260 l 711 347 l 754 347 l 754 521 l 711 521 l 711 608 l 667 608 l 667 651 l 624 651 l 624 694 l 537 694 l 537 738 l 407 738 l 407 694 l 320 694 l 320 651 l 277 651 l 277 608 l 233 608 l 233 521 l 190 521 l 190 347 l 233 347 l 233 260 l 277 260 l 277 217 l 320 217 l 320 174 l 407 174 l 407 130 l 537 130 m 363 0 l 363 43 l 233 43 l 233 87 l 190 87 l 190 130 l 146 130 l 146 174 l 103 174 l 103 260 l 60 260 l 60 608 l 103 608 l 103 694 l 146 694 l 146 738 l 190 738 l 190 781 l 233 781 l 233 825 l 363 825 l 363 868 l 581 868 l 581 825 l 711 825 l 711 781 l 754 781 l 754 738 l 798 738 l 798 694 l 841 694 l 841 608 l 884 608 l 884 260 l 841 260 l 841 174 l 798 174 l 798 130 l 754 130 l 754 87 l 711 87 l 711 43 l 581 43 l 581 0 l 363 0 z "},"P":{"ha":765,"x_min":77,"x_max":685,"o":"m 511 521 l 511 564 l 555 564 l 555 694 l 511 694 l 511 738 l 208 738 l 208 521 l 511 521 m 77 0 l 77 868 l 555 868 l 555 825 l 598 825 l 598 781 l 642 781 l 642 738 l 685 738 l 685 521 l 642 521 l 642 477 l 598 477 l 598 434 l 555 434 l 555 391 l 208 391 l 208 0 l 77 0 z "},"Q":{"ha":947,"x_min":60,"x_max":884,"o":"m 537 130 l 537 174 l 624 174 l 624 217 l 667 217 l 667 260 l 711 260 l 711 347 l 754 347 l 754 521 l 711 521 l 711 608 l 667 608 l 667 651 l 624 651 l 624 694 l 537 694 l 537 738 l 407 738 l 407 694 l 320 694 l 320 651 l 277 651 l 277 608 l 233 608 l 233 521 l 190 521 l 190 347 l 233 347 l 233 260 l 277 260 l 277 217 l 320 217 l 320 174 l 407 174 l 407 130 l 537 130 m 494 -174 l 494 -130 l 450 -130 l 450 -87 l 407 -87 l 407 0 l 363 0 l 363 43 l 233 43 l 233 87 l 190 87 l 190 130 l 146 130 l 146 174 l 103 174 l 103 260 l 60 260 l 60 608 l 103 608 l 103 694 l 146 694 l 146 738 l 190 738 l 190 781 l 233 781 l 233 825 l 363 825 l 363 868 l 581 868 l 581 825 l 711 825 l 711 781 l 754 781 l 754 738 l 798 738 l 798 694 l 841 694 l 841 608 l 884 608 l 884 260 l 841 260 l 841 174 l 798 174 l 798 130 l 754 130 l 754 87 l 711 87 l 711 43 l 581 43 l 581 0 l 537 0 l 537 -43 l 624 -43 l 624 -174 l 494 -174 z "},"R":{"ha":837,"x_min":77,"x_max":772,"o":"m 511 521 l 511 564 l 555 564 l 555 694 l 511 694 l 511 738 l 208 738 l 208 521 l 511 521 m 77 0 l 77 868 l 555 868 l 555 825 l 598 825 l 598 781 l 642 781 l 642 738 l 685 738 l 685 521 l 642 521 l 642 477 l 598 477 l 598 434 l 555 434 l 555 391 l 425 391 l 425 347 l 468 347 l 468 304 l 511 304 l 511 260 l 555 260 l 555 217 l 598 217 l 598 174 l 642 174 l 642 130 l 685 130 l 685 87 l 728 87 l 728 43 l 772 43 l 772 0 l 598 0 l 598 43 l 555 43 l 555 87 l 511 87 l 511 130 l 468 130 l 468 174 l 425 174 l 425 217 l 381 217 l 381 260 l 338 260 l 338 304 l 294 304 l 294 347 l 251 347 l 251 391 l 208 391 l 208 0 l 77 0 z "},"S":{"ha":699,"x_min":71,"x_max":635,"o":"m 244 0 l 244 43 l 157 43 l 157 87 l 114 87 l 114 130 l 71 130 l 71 217 l 201 217 l 201 174 l 244 174 l 244 130 l 461 130 l 461 174 l 505 174 l 505 304 l 461 304 l 461 347 l 418 347 l 418 391 l 288 391 l 288 434 l 157 434 l 157 477 l 114 477 l 114 521 l 71 521 l 71 738 l 114 738 l 114 781 l 157 781 l 157 825 l 201 825 l 201 868 l 505 868 l 505 825 l 548 825 l 548 781 l 591 781 l 591 694 l 461 694 l 461 738 l 244 738 l 244 694 l 201 694 l 201 564 l 288 564 l 288 521 l 418 521 l 418 477 l 505 477 l 505 434 l 591 434 l 591 347 l 635 347 l 635 130 l 591 130 l 591 87 l 548 87 l 548 43 l 461 43 l 461 0 l 244 0 z "},"T":{"ha":746,"x_min":0,"x_max":738,"o":"m 304 0 l 304 738 l 0 738 l 0 868 l 738 868 l 738 738 l 434 738 l 434 0 l 304 0 z "},"U":{"ha":806,"x_min":75,"x_max":726,"o":"m 248 0 l 248 43 l 161 43 l 161 87 l 118 87 l 118 174 l 75 174 l 75 868 l 205 868 l 205 260 l 248 260 l 248 174 l 292 174 l 292 130 l 509 130 l 509 174 l 552 174 l 552 260 l 595 260 l 595 868 l 726 868 l 726 174 l 682 174 l 682 87 l 639 87 l 639 43 l 552 43 l 552 0 l 248 0 z "},"V":{"ha":838,"x_min":20,"x_max":758,"o":"m 324 0 l 324 87 l 281 87 l 281 217 l 237 217 l 237 304 l 194 304 l 194 434 l 151 434 l 151 564 l 107 564 l 107 651 l 64 651 l 64 781 l 20 781 l 20 868 l 151 868 l 151 781 l 194 781 l 194 651 l 237 651 l 237 564 l 281 564 l 281 434 l 324 434 l 324 304 l 368 304 l 368 217 l 411 217 l 411 304 l 454 304 l 454 434 l 498 434 l 498 564 l 541 564 l 541 651 l 585 651 l 585 781 l 628 781 l 628 868 l 758 868 l 758 781 l 715 781 l 715 651 l 671 651 l 671 564 l 628 564 l 628 434 l 585 434 l 585 304 l 541 304 l 541 217 l 498 217 l 498 87 l 454 87 l 454 0 l 324 0 z "},"W":{"ha":1120,"x_min":42,"x_max":1040,"o":"m 259 0 l 259 87 l 216 87 l 216 217 l 172 217 l 172 391 l 129 391 l 129 564 l 85 564 l 85 694 l 42 694 l 42 868 l 172 868 l 172 694 l 216 694 l 216 521 l 259 521 l 259 391 l 302 391 l 302 217 l 346 217 l 346 391 l 389 391 l 389 521 l 433 521 l 433 694 l 476 694 l 476 868 l 606 868 l 606 694 l 650 694 l 650 521 l 693 521 l 693 391 l 736 391 l 736 217 l 780 217 l 780 391 l 823 391 l 823 521 l 867 521 l 867 694 l 910 694 l 910 868 l 1040 868 l 1040 694 l 997 694 l 997 564 l 954 564 l 954 391 l 910 391 l 910 217 l 867 217 l 867 87 l 823 87 l 823 0 l 693 0 l 693 87 l 650 87 l 650 217 l 606 217 l 606 391 l 563 391 l 563 564 l 519 564 l 519 391 l 476 391 l 476 217 l 433 217 l 433 87 l 389 87 l 389 0 l 259 0 z "},"X":{"ha":914,"x_min":53,"x_max":834,"o":"m 53 0 l 53 87 l 96 87 l 96 130 l 140 130 l 140 174 l 183 174 l 183 217 l 227 217 l 227 304 l 270 304 l 270 347 l 313 347 l 313 391 l 357 391 l 357 477 l 313 477 l 313 521 l 270 521 l 270 564 l 227 564 l 227 651 l 183 651 l 183 694 l 140 694 l 140 738 l 96 738 l 96 781 l 53 781 l 53 868 l 227 868 l 227 825 l 270 825 l 270 738 l 313 738 l 313 694 l 357 694 l 357 651 l 400 651 l 400 564 l 487 564 l 487 651 l 530 651 l 530 694 l 574 694 l 574 738 l 617 738 l 617 825 l 661 825 l 661 868 l 834 868 l 834 781 l 791 781 l 791 738 l 747 738 l 747 694 l 704 694 l 704 651 l 661 651 l 661 564 l 617 564 l 617 521 l 574 521 l 574 477 l 530 477 l 530 391 l 574 391 l 574 347 l 617 347 l 617 304 l 661 304 l 661 217 l 704 217 l 704 174 l 747 174 l 747 130 l 791 130 l 791 87 l 834 87 l 834 0 l 661 0 l 661 43 l 617 43 l 617 130 l 574 130 l 574 174 l 530 174 l 530 217 l 487 217 l 487 304 l 400 304 l 400 217 l 357 217 l 357 174 l 313 174 l 313 130 l 270 130 l 270 43 l 227 43 l 227 0 l 53 0 z "},"Y":{"ha":815,"x_min":-3,"x_max":735,"o":"m 301 0 l 301 304 l 258 304 l 258 391 l 214 391 l 214 477 l 171 477 l 171 564 l 127 564 l 127 651 l 84 651 l 84 738 l 41 738 l 41 825 l -3 825 l -3 868 l 171 868 l 171 781 l 214 781 l 214 694 l 258 694 l 258 608 l 301 608 l 301 521 l 345 521 l 345 434 l 388 434 l 388 521 l 431 521 l 431 608 l 475 608 l 475 694 l 518 694 l 518 781 l 562 781 l 562 868 l 735 868 l 735 825 l 692 825 l 692 738 l 648 738 l 648 651 l 605 651 l 605 564 l 562 564 l 562 477 l 518 477 l 518 391 l 475 391 l 475 304 l 431 304 l 431 0 l 301 0 z "},"Z":{"ha":789,"x_min":58,"x_max":709,"o":"m 58 0 l 58 130 l 102 130 l 102 174 l 145 174 l 145 217 l 189 217 l 189 304 l 232 304 l 232 347 l 275 347 l 275 391 l 319 391 l 319 477 l 362 477 l 362 521 l 406 521 l 406 564 l 449 564 l 449 651 l 492 651 l 492 694 l 536 694 l 536 738 l 58 738 l 58 868 l 709 868 l 709 694 l 666 694 l 666 651 l 623 651 l 623 564 l 579 564 l 579 521 l 536 521 l 536 477 l 492 477 l 492 391 l 449 391 l 449 347 l 406 347 l 406 304 l 362 304 l 362 260 l 319 260 l 319 174 l 275 174 l 275 130 l 709 130 l 709 0 l 58 0 z "},"[":{"ha":427,"x_min":79,"x_max":339,"o":"m 79 -130 l 79 998 l 339 998 l 339 911 l 165 911 l 165 -43 l 339 -43 l 339 -130 l 79 -130 z "},"\\":{"ha":674,"x_min":-11,"x_max":597,"o":"m 467 -87 l 467 0 l 423 0 l 423 87 l 380 87 l 380 174 l 336 174 l 336 260 l 293 260 l 293 347 l 250 347 l 250 434 l 206 434 l 206 521 l 163 521 l 163 608 l 119 608 l 119 694 l 76 694 l 76 781 l 33 781 l 33 868 l -11 868 l -11 955 l 119 955 l 119 868 l 163 868 l 163 781 l 206 781 l 206 694 l 250 694 l 250 608 l 293 608 l 293 521 l 336 521 l 336 434 l 380 434 l 380 347 l 423 347 l 423 260 l 467 260 l 467 174 l 510 174 l 510 87 l 553 87 l 553 0 l 597 0 l 597 -87 l 467 -87 z "},"]":{"ha":365,"x_min":16,"x_max":277,"o":"m 16 -130 l 16 -43 l 190 -43 l 190 911 l 16 911 l 16 998 l 277 998 l 277 -130 l 16 -130 z "},"^":{"ha":543,"x_min":28,"x_max":463,"o":"m 28 694 l 28 738 l 72 738 l 72 781 l 115 781 l 115 825 l 159 825 l 159 868 l 332 868 l 332 825 l 376 825 l 376 781 l 419 781 l 419 738 l 463 738 l 463 694 l 376 694 l 376 738 l 289 738 l 289 781 l 202 781 l 202 738 l 115 738 l 115 694 l 28 694 z "},"_":{"ha":997,"x_min":8,"x_max":920,"o":"m 8 -87 l 8 0 l 920 0 l 920 -87 l 8 -87 z "},"`":{"ha":311,"x_min":14,"x_max":231,"o":"m 100 738 l 100 781 l 57 781 l 57 825 l 14 825 l 14 868 l 144 868 l 144 825 l 187 825 l 187 781 l 231 781 l 231 738 l 100 738 z "},"a":{"ha":690,"x_min":57,"x_max":621,"o":"m 404 130 l 404 174 l 448 174 l 448 217 l 491 217 l 491 434 l 448 434 l 448 477 l 404 477 l 404 521 l 231 521 l 231 477 l 187 477 l 187 174 l 231 174 l 231 130 l 404 130 m 231 0 l 231 43 l 144 43 l 144 87 l 100 87 l 100 174 l 57 174 l 57 477 l 100 477 l 100 564 l 144 564 l 144 608 l 231 608 l 231 651 l 404 651 l 404 608 l 448 608 l 448 564 l 491 564 l 491 651 l 621 651 l 621 0 l 491 0 l 491 87 l 448 87 l 448 43 l 404 43 l 404 0 l 231 0 z "},"b":{"ha":692,"x_min":77,"x_max":642,"o":"m 468 130 l 468 174 l 511 174 l 511 477 l 468 477 l 468 521 l 294 521 l 294 477 l 251 477 l 251 434 l 208 434 l 208 217 l 251 217 l 251 174 l 294 174 l 294 130 l 468 130 m 77 0 l 77 868 l 208 868 l 208 564 l 251 564 l 251 608 l 294 608 l 294 651 l 468 651 l 468 608 l 555 608 l 555 564 l 598 564 l 598 477 l 642 477 l 642 174 l 598 174 l 598 87 l 555 87 l 555 43 l 468 43 l 468 0 l 294 0 l 294 43 l 251 43 l 251 87 l 208 87 l 208 0 l 77 0 z "},"c":{"ha":598,"x_min":57,"x_max":534,"o":"m 231 0 l 231 43 l 144 43 l 144 87 l 100 87 l 100 174 l 57 174 l 57 477 l 100 477 l 100 564 l 144 564 l 144 608 l 231 608 l 231 651 l 404 651 l 404 608 l 491 608 l 491 564 l 534 564 l 534 434 l 448 434 l 448 477 l 404 477 l 404 521 l 231 521 l 231 477 l 187 477 l 187 174 l 231 174 l 231 130 l 404 130 l 404 174 l 448 174 l 448 217 l 534 217 l 534 87 l 491 87 l 491 43 l 404 43 l 404 0 l 231 0 z "},"d":{"ha":696,"x_min":52,"x_max":616,"o":"m 399 130 l 399 174 l 442 174 l 442 217 l 486 217 l 486 434 l 442 434 l 442 477 l 399 477 l 399 521 l 225 521 l 225 477 l 182 477 l 182 174 l 225 174 l 225 130 l 399 130 m 225 0 l 225 43 l 138 43 l 138 87 l 95 87 l 95 174 l 52 174 l 52 477 l 95 477 l 95 564 l 138 564 l 138 608 l 225 608 l 225 651 l 399 651 l 399 608 l 442 608 l 442 564 l 486 564 l 486 868 l 616 868 l 616 0 l 486 0 l 486 87 l 442 87 l 442 43 l 399 43 l 399 0 l 225 0 z "},"e":{"ha":635,"x_min":57,"x_max":578,"o":"m 448 391 l 448 477 l 404 477 l 404 521 l 231 521 l 231 477 l 187 477 l 187 391 l 448 391 m 231 0 l 231 43 l 144 43 l 144 87 l 100 87 l 100 174 l 57 174 l 57 477 l 100 477 l 100 564 l 144 564 l 144 608 l 231 608 l 231 651 l 404 651 l 404 608 l 491 608 l 491 564 l 534 564 l 534 477 l 578 477 l 578 304 l 187 304 l 187 174 l 231 174 l 231 130 l 404 130 l 404 174 l 448 174 l 448 217 l 578 217 l 578 130 l 534 130 l 534 87 l 491 87 l 491 43 l 404 43 l 404 0 l 231 0 z "},"f":{"ha":525,"x_min":54,"x_max":445,"o":"m 141 0 l 141 521 l 54 521 l 54 651 l 141 651 l 141 781 l 184 781 l 184 825 l 228 825 l 228 868 l 445 868 l 445 781 l 315 781 l 315 738 l 271 738 l 271 651 l 401 651 l 401 521 l 271 521 l 271 0 l 141 0 z "},"g":{"ha":703,"x_min":61,"x_max":625,"o":"m 408 130 l 408 174 l 452 174 l 452 217 l 495 217 l 495 434 l 452 434 l 452 477 l 408 477 l 408 521 l 235 521 l 235 477 l 191 477 l 191 174 l 235 174 l 235 130 l 408 130 m 235 -260 l 235 -217 l 148 -217 l 148 -174 l 104 -174 l 104 -130 l 61 -130 l 61 -87 l 104 -87 l 104 -43 l 191 -43 l 191 -87 l 235 -87 l 235 -130 l 452 -130 l 452 -87 l 495 -87 l 495 87 l 452 87 l 452 43 l 408 43 l 408 0 l 235 0 l 235 43 l 148 43 l 148 87 l 104 87 l 104 174 l 61 174 l 61 477 l 104 477 l 104 564 l 148 564 l 148 608 l 235 608 l 235 651 l 408 651 l 408 608 l 452 608 l 452 564 l 495 564 l 495 651 l 625 651 l 625 -130 l 582 -130 l 582 -174 l 538 -174 l 538 -217 l 452 -217 l 452 -260 l 235 -260 z "},"h":{"ha":707,"x_min":77,"x_max":642,"o":"m 77 0 l 77 868 l 208 868 l 208 564 l 251 564 l 251 608 l 294 608 l 294 651 l 468 651 l 468 608 l 555 608 l 555 564 l 598 564 l 598 477 l 642 477 l 642 0 l 511 0 l 511 477 l 468 477 l 468 521 l 294 521 l 294 477 l 251 477 l 251 434 l 208 434 l 208 0 l 77 0 z "},"i":{"ha":288,"x_min":77,"x_max":208,"o":"m 77 0 l 77 651 l 208 651 l 208 0 l 77 0 m 77 738 l 77 868 l 208 868 l 208 738 l 77 738 z "},"j":{"ha":288,"x_min":77,"x_max":208,"o":"m 77 -260 l 77 651 l 208 651 l 208 -260 l 77 -260 m 77 738 l 77 868 l 208 868 l 208 738 l 77 738 z "},"k":{"ha":707,"x_min":77,"x_max":642,"o":"m 77 0 l 77 868 l 208 868 l 208 391 l 251 391 l 251 434 l 294 434 l 294 477 l 338 477 l 338 521 l 381 521 l 381 564 l 425 564 l 425 608 l 468 608 l 468 651 l 642 651 l 642 608 l 598 608 l 598 564 l 555 564 l 555 521 l 511 521 l 511 477 l 468 477 l 468 434 l 425 434 l 425 391 l 381 391 l 381 347 l 338 347 l 338 304 l 381 304 l 381 260 l 425 260 l 425 217 l 468 217 l 468 174 l 511 174 l 511 130 l 555 130 l 555 87 l 598 87 l 598 43 l 642 43 l 642 0 l 468 0 l 468 43 l 425 43 l 425 87 l 381 87 l 381 130 l 338 130 l 338 174 l 294 174 l 294 217 l 251 217 l 251 260 l 208 260 l 208 0 l 77 0 z "},"l":{"ha":288,"x_min":77,"x_max":208,"o":"m 77 0 l 77 868 l 208 868 l 208 0 l 77 0 z "},"m":{"ha":962,"x_min":72,"x_max":897,"o":"m 72 0 l 72 651 l 202 651 l 202 564 l 245 564 l 245 608 l 289 608 l 289 651 l 419 651 l 419 608 l 463 608 l 463 564 l 549 564 l 549 608 l 593 608 l 593 651 l 766 651 l 766 608 l 810 608 l 810 564 l 853 564 l 853 477 l 897 477 l 897 0 l 766 0 l 766 477 l 723 477 l 723 521 l 593 521 l 593 477 l 549 477 l 549 0 l 419 0 l 419 477 l 376 477 l 376 521 l 289 521 l 289 477 l 245 477 l 245 434 l 202 434 l 202 0 l 72 0 z "},"n":{"ha":658,"x_min":72,"x_max":593,"o":"m 72 0 l 72 651 l 202 651 l 202 564 l 245 564 l 245 608 l 289 608 l 289 651 l 419 651 l 419 608 l 506 608 l 506 564 l 549 564 l 549 477 l 593 477 l 593 0 l 463 0 l 463 477 l 419 477 l 419 521 l 289 521 l 289 477 l 245 477 l 245 434 l 202 434 l 202 0 l 72 0 z "},"o":{"ha":633,"x_min":57,"x_max":578,"o":"m 404 130 l 404 174 l 448 174 l 448 477 l 404 477 l 404 521 l 231 521 l 231 477 l 187 477 l 187 174 l 231 174 l 231 130 l 404 130 m 231 0 l 231 43 l 144 43 l 144 87 l 100 87 l 100 174 l 57 174 l 57 477 l 100 477 l 100 564 l 144 564 l 144 608 l 231 608 l 231 651 l 404 651 l 404 608 l 491 608 l 491 564 l 534 564 l 534 477 l 578 477 l 578 174 l 534 174 l 534 87 l 491 87 l 491 43 l 404 43 l 404 0 l 231 0 z "},"p":{"ha":692,"x_min":72,"x_max":636,"o":"m 463 130 l 463 174 l 506 174 l 506 477 l 463 477 l 463 521 l 289 521 l 289 477 l 245 477 l 245 434 l 202 434 l 202 217 l 245 217 l 245 174 l 289 174 l 289 130 l 463 130 m 72 -260 l 72 651 l 202 651 l 202 564 l 245 564 l 245 608 l 289 608 l 289 651 l 463 651 l 463 608 l 549 608 l 549 564 l 593 564 l 593 477 l 636 477 l 636 174 l 593 174 l 593 87 l 549 87 l 549 43 l 463 43 l 463 0 l 289 0 l 289 43 l 245 43 l 245 87 l 202 87 l 202 -260 l 72 -260 z "},"q":{"ha":699,"x_min":57,"x_max":621,"o":"m 404 130 l 404 174 l 448 174 l 448 217 l 491 217 l 491 434 l 448 434 l 448 477 l 404 477 l 404 521 l 231 521 l 231 477 l 187 477 l 187 174 l 231 174 l 231 130 l 404 130 m 491 -260 l 491 87 l 448 87 l 448 43 l 404 43 l 404 0 l 231 0 l 231 43 l 144 43 l 144 87 l 100 87 l 100 174 l 57 174 l 57 477 l 100 477 l 100 564 l 144 564 l 144 608 l 231 608 l 231 651 l 404 651 l 404 608 l 448 608 l 448 564 l 491 564 l 491 651 l 621 651 l 621 -260 l 491 -260 z "},"r":{"ha":589,"x_min":72,"x_max":549,"o":"m 72 0 l 72 651 l 202 651 l 202 564 l 245 564 l 245 608 l 289 608 l 289 651 l 463 651 l 463 608 l 506 608 l 506 564 l 549 564 l 549 477 l 506 477 l 506 434 l 463 434 l 463 477 l 419 477 l 419 521 l 289 521 l 289 477 l 245 477 l 245 434 l 202 434 l 202 0 l 72 0 z "},"s":{"ha":557,"x_min":65,"x_max":499,"o":"m 152 0 l 152 43 l 109 43 l 109 87 l 65 87 l 65 174 l 109 174 l 109 217 l 152 217 l 152 174 l 195 174 l 195 130 l 239 130 l 239 87 l 326 87 l 326 130 l 369 130 l 369 217 l 326 217 l 326 260 l 282 260 l 282 304 l 195 304 l 195 347 l 152 347 l 152 391 l 109 391 l 109 434 l 65 434 l 65 564 l 109 564 l 109 608 l 152 608 l 152 651 l 412 651 l 412 608 l 456 608 l 456 477 l 369 477 l 369 521 l 326 521 l 326 564 l 239 564 l 239 521 l 195 521 l 195 477 l 239 477 l 239 434 l 282 434 l 282 391 l 369 391 l 369 347 l 412 347 l 412 304 l 456 304 l 456 260 l 499 260 l 499 87 l 456 87 l 456 43 l 412 43 l 412 0 l 152 0 z "},"t":{"ha":490,"x_min":54,"x_max":445,"o":"m 141 0 l 141 521 l 54 521 l 54 651 l 141 651 l 141 825 l 271 825 l 271 651 l 445 651 l 445 521 l 271 521 l 271 0 l 141 0 z "},"u":{"ha":661,"x_min":71,"x_max":591,"o":"m 157 0 l 157 43 l 114 43 l 114 87 l 71 87 l 71 651 l 201 651 l 201 174 l 244 174 l 244 130 l 374 130 l 374 174 l 418 174 l 418 217 l 461 217 l 461 651 l 591 651 l 591 0 l 461 0 l 461 87 l 418 87 l 418 43 l 374 43 l 374 0 l 157 0 z "},"v":{"ha":667,"x_min":52,"x_max":616,"o":"m 225 0 l 225 87 l 182 87 l 182 217 l 138 217 l 138 391 l 95 391 l 95 521 l 52 521 l 52 651 l 182 651 l 182 564 l 225 564 l 225 391 l 269 391 l 269 260 l 312 260 l 312 130 l 355 130 l 355 260 l 399 260 l 399 391 l 442 391 l 442 564 l 486 564 l 486 651 l 616 651 l 616 521 l 572 521 l 572 391 l 529 391 l 529 217 l 486 217 l 486 87 l 442 87 l 442 0 l 225 0 z "},"w":{"ha":928,"x_min":52,"x_max":876,"o":"m 529 391 l 529 260 l 572 260 l 572 130 l 616 130 l 616 260 l 659 260 l 659 391 l 703 391 l 703 521 l 746 521 l 746 651 l 876 651 l 876 521 l 833 521 l 833 391 l 789 391 l 789 217 l 746 217 l 746 87 l 703 87 l 703 0 l 529 0 l 529 87 l 486 87 l 486 217 l 442 217 l 442 87 l 399 87 l 399 0 l 225 0 l 225 87 l 182 87 l 182 217 l 138 217 l 138 391 l 95 391 l 95 521 l 52 521 l 52 651 l 182 651 l 182 521 l 225 521 l 225 391 l 269 391 l 269 260 l 312 260 l 312 130 l 355 130 l 355 260 l 399 260 l 399 391 l 442 391 l 442 477 l 486 477 l 486 391 l 529 391 z "},"x":{"ha":658,"x_min":69,"x_max":590,"o":"m 69 0 l 69 130 l 113 130 l 113 174 l 156 174 l 156 217 l 199 217 l 199 260 l 243 260 l 243 304 l 286 304 l 286 347 l 243 347 l 243 391 l 199 391 l 199 434 l 156 434 l 156 477 l 113 477 l 113 521 l 69 521 l 69 651 l 156 651 l 156 608 l 199 608 l 199 564 l 243 564 l 243 521 l 286 521 l 286 434 l 373 434 l 373 521 l 416 521 l 416 564 l 460 564 l 460 608 l 503 608 l 503 651 l 590 651 l 590 521 l 547 521 l 547 477 l 503 477 l 503 434 l 460 434 l 460 391 l 416 391 l 416 347 l 373 347 l 373 304 l 416 304 l 416 260 l 460 260 l 460 217 l 503 217 l 503 174 l 547 174 l 547 130 l 590 130 l 590 0 l 503 0 l 503 43 l 460 43 l 460 87 l 416 87 l 416 130 l 373 130 l 373 217 l 286 217 l 286 130 l 243 130 l 243 87 l 199 87 l 199 43 l 156 43 l 156 0 l 69 0 z "},"y":{"ha":624,"x_min":52,"x_max":572,"o":"m 182 -260 l 182 -130 l 225 -130 l 225 0 l 269 0 l 269 87 l 225 87 l 225 174 l 182 174 l 182 260 l 138 260 l 138 391 l 95 391 l 95 521 l 52 521 l 52 651 l 182 651 l 182 521 l 225 521 l 225 391 l 269 391 l 269 260 l 312 260 l 312 217 l 355 217 l 355 391 l 399 391 l 399 521 l 442 521 l 442 651 l 572 651 l 572 521 l 529 521 l 529 391 l 486 391 l 486 260 l 442 260 l 442 130 l 399 130 l 399 0 l 355 0 l 355 -130 l 312 -130 l 312 -260 l 182 -260 z "},"z":{"ha":700,"x_min":68,"x_max":632,"o":"m 68 0 l 68 130 l 111 130 l 111 174 l 155 174 l 155 217 l 198 217 l 198 260 l 241 260 l 241 304 l 285 304 l 285 347 l 328 347 l 328 391 l 372 391 l 372 434 l 415 434 l 415 477 l 458 477 l 458 521 l 68 521 l 68 651 l 632 651 l 632 521 l 589 521 l 589 477 l 545 477 l 545 434 l 502 434 l 502 391 l 458 391 l 458 347 l 415 347 l 415 304 l 372 304 l 372 260 l 328 260 l 328 217 l 285 217 l 285 174 l 241 174 l 241 130 l 632 130 l 632 0 l 68 0 z "},"{":{"ha":484,"x_min":49,"x_max":396,"o":"m 222 -130 l 222 -87 l 179 -87 l 179 -43 l 136 -43 l 136 391 l 92 391 l 92 434 l 49 434 l 49 477 l 92 477 l 92 521 l 136 521 l 136 911 l 179 911 l 179 955 l 222 955 l 222 998 l 396 998 l 396 955 l 309 955 l 309 911 l 266 911 l 266 564 l 222 564 l 222 521 l 179 521 l 179 477 l 136 477 l 136 434 l 179 434 l 179 391 l 222 391 l 222 347 l 266 347 l 266 -43 l 309 -43 l 309 -87 l 396 -87 l 396 -130 l 222 -130 z "},"|":{"ha":254,"x_min":79,"x_max":165,"o":"m 79 -130 l 79 998 l 165 998 l 165 -130 l 79 -130 z "},"}":{"ha":384,"x_min":-14,"x_max":334,"o":"m -14 -130 l -14 -87 l 73 -87 l 73 -43 l 117 -43 l 117 347 l 160 347 l 160 391 l 203 391 l 203 434 l 247 434 l 247 477 l 203 477 l 203 521 l 160 521 l 160 564 l 117 564 l 117 911 l 73 911 l 73 955 l -14 955 l -14 998 l 160 998 l 160 955 l 203 955 l 203 911 l 247 911 l 247 521 l 290 521 l 290 477 l 334 477 l 334 434 l 290 434 l 290 391 l 247 391 l 247 -43 l 203 -43 l 203 -87 l 160 -87 l 160 -130 l -14 -130 z "},"~":{"ha":620,"x_min":47,"x_max":568,"o":"m 47 347 l 47 477 l 91 477 l 91 521 l 134 521 l 134 564 l 264 564 l 264 521 l 351 521 l 351 477 l 481 477 l 481 521 l 525 521 l 525 564 l 568 564 l 568 434 l 525 434 l 525 391 l 481 391 l 481 347 l 351 347 l 351 391 l 264 391 l 264 434 l 134 434 l 134 391 l 91 391 l 91 347 l 47 347 z "},"¡":{"ha":288,"x_min":77,"x_max":208,"o":"m 77 0 l 77 608 l 208 608 l 208 0 l 77 0 m 77 738 l 77 868 l 208 868 l 208 738 l 77 738 z "},"¢":{"ha":633,"x_min":1,"x_max":566,"o":"m 1 -43 l 1 0 l 45 0 l 45 43 l 88 43 l 88 434 l 132 434 l 132 477 l 175 477 l 175 521 l 218 521 l 218 564 l 435 564 l 435 608 l 479 608 l 479 651 l 566 651 l 566 608 l 522 608 l 522 564 l 479 564 l 479 521 l 522 521 l 522 477 l 566 477 l 566 391 l 479 391 l 479 434 l 435 434 l 435 477 l 262 477 l 262 434 l 218 434 l 218 391 l 175 391 l 175 174 l 218 174 l 218 130 l 262 130 l 262 87 l 435 87 l 435 130 l 479 130 l 479 174 l 566 174 l 566 87 l 522 87 l 522 43 l 479 43 l 479 0 l 218 0 l 218 43 l 132 43 l 132 0 l 88 0 l 88 -43 l 1 -43 z "},"£":{"ha":819,"x_min":45,"x_max":739,"o":"m 218 87 l 218 174 l 175 174 l 175 217 l 88 217 l 88 87 l 218 87 m 88 0 l 88 43 l 45 43 l 45 260 l 88 260 l 88 304 l 218 304 l 218 260 l 262 260 l 262 434 l 88 434 l 88 521 l 262 521 l 262 781 l 305 781 l 305 825 l 349 825 l 349 868 l 652 868 l 652 825 l 696 825 l 696 781 l 739 781 l 739 694 l 609 694 l 609 738 l 566 738 l 566 781 l 435 781 l 435 738 l 392 738 l 392 521 l 652 521 l 652 434 l 392 434 l 392 174 l 435 174 l 435 130 l 479 130 l 479 87 l 566 87 l 566 130 l 609 130 l 609 174 l 652 174 l 652 217 l 739 217 l 739 87 l 696 87 l 696 43 l 652 43 l 652 0 l 392 0 l 392 43 l 349 43 l 349 87 l 305 87 l 305 43 l 262 43 l 262 0 l 88 0 z "},"¤":{"ha":826,"x_min":66,"x_max":761,"o":"m 544 130 l 544 174 l 587 174 l 587 217 l 631 217 l 631 477 l 587 477 l 587 521 l 544 521 l 544 564 l 283 564 l 283 521 l 240 521 l 240 477 l 197 477 l 197 217 l 240 217 l 240 174 l 283 174 l 283 130 l 544 130 m 110 0 l 110 43 l 66 43 l 66 87 l 110 87 l 110 130 l 153 130 l 153 217 l 110 217 l 110 477 l 153 477 l 153 564 l 110 564 l 110 608 l 66 608 l 66 651 l 110 651 l 110 694 l 153 694 l 153 651 l 197 651 l 197 608 l 283 608 l 283 651 l 544 651 l 544 608 l 631 608 l 631 651 l 674 651 l 674 694 l 718 694 l 718 651 l 761 651 l 761 608 l 718 608 l 718 564 l 674 564 l 674 477 l 718 477 l 718 217 l 674 217 l 674 130 l 718 130 l 718 87 l 761 87 l 761 43 l 718 43 l 718 0 l 674 0 l 674 43 l 631 43 l 631 87 l 544 87 l 544 43 l 283 43 l 283 87 l 197 87 l 197 43 l 153 43 l 153 0 l 110 0 z "},"¥":{"ha":878,"x_min":60,"x_max":798,"o":"m 450 434 l 450 521 l 494 521 l 494 564 l 363 564 l 363 521 l 407 521 l 407 434 l 450 434 m 363 0 l 363 304 l 60 304 l 60 391 l 277 391 l 277 477 l 233 477 l 233 564 l 60 564 l 60 651 l 146 651 l 146 738 l 103 738 l 103 825 l 60 825 l 60 868 l 233 868 l 233 781 l 277 781 l 277 694 l 320 694 l 320 651 l 537 651 l 537 694 l 581 694 l 581 781 l 624 781 l 624 868 l 798 868 l 798 825 l 754 825 l 754 738 l 711 738 l 711 651 l 798 651 l 798 564 l 624 564 l 624 477 l 581 477 l 581 391 l 798 391 l 798 304 l 494 304 l 494 0 l 363 0 z "},"¦":{"ha":254,"x_min":79,"x_max":165,"o":"m 79 -87 l 79 955 l 165 955 l 165 -87 l 79 -87 z "},"§":{"ha":556,"x_min":61,"x_max":495,"o":"m 365 217 l 365 260 l 408 260 l 408 347 l 365 347 l 365 391 l 321 391 l 321 434 l 191 434 l 191 391 l 148 391 l 148 304 l 191 304 l 191 260 l 235 260 l 235 217 l 365 217 m 191 -217 l 191 -174 l 148 -174 l 148 -87 l 104 -87 l 104 0 l 191 0 l 191 -87 l 235 -87 l 235 -130 l 321 -130 l 321 -87 l 365 -87 l 365 0 l 321 0 l 321 43 l 278 43 l 278 87 l 235 87 l 235 130 l 191 130 l 191 174 l 148 174 l 148 217 l 104 217 l 104 260 l 61 260 l 61 434 l 104 434 l 104 477 l 191 477 l 191 564 l 148 564 l 148 608 l 104 608 l 104 781 l 148 781 l 148 825 l 191 825 l 191 868 l 365 868 l 365 825 l 408 825 l 408 738 l 452 738 l 452 651 l 365 651 l 365 738 l 321 738 l 321 781 l 235 781 l 235 738 l 191 738 l 191 651 l 235 651 l 235 608 l 278 608 l 278 564 l 321 564 l 321 521 l 365 521 l 365 477 l 408 477 l 408 434 l 452 434 l 452 391 l 495 391 l 495 217 l 452 217 l 452 174 l 365 174 l 365 130 l 408 130 l 408 43 l 452 43 l 452 -130 l 408 -130 l 408 -174 l 365 -174 l 365 -217 l 191 -217 z "},"¨":{"ha":524,"x_min":45,"x_max":435,"o":"m 45 955 l 45 1085 l 175 1085 l 175 955 l 45 955 m 305 955 l 305 1085 l 435 1085 l 435 955 l 305 955 z "},"©":{"ha":990,"x_min":60,"x_max":928,"o":"m 320 0 l 320 43 l 233 43 l 233 87 l 190 87 l 190 130 l 146 130 l 146 174 l 103 174 l 103 304 l 146 304 l 146 217 l 190 217 l 190 174 l 233 174 l 233 130 l 320 130 l 320 87 l 667 87 l 667 130 l 754 130 l 754 174 l 798 174 l 798 217 l 841 217 l 841 304 l 884 304 l 884 174 l 841 174 l 841 130 l 798 130 l 798 87 l 754 87 l 754 43 l 667 43 l 667 0 l 320 0 m 60 304 l 60 608 l 103 608 l 103 304 l 60 304 m 884 304 l 884 608 l 928 608 l 928 304 l 884 304 m 363 174 l 363 217 l 320 217 l 320 260 l 277 260 l 277 304 l 233 304 l 233 608 l 277 608 l 277 651 l 320 651 l 320 694 l 363 694 l 363 738 l 624 738 l 624 694 l 667 694 l 667 651 l 711 651 l 711 564 l 624 564 l 624 608 l 581 608 l 581 651 l 407 651 l 407 608 l 363 608 l 363 564 l 320 564 l 320 347 l 363 347 l 363 304 l 407 304 l 407 260 l 581 260 l 581 304 l 624 304 l 624 347 l 711 347 l 711 260 l 667 260 l 667 217 l 624 217 l 624 174 l 363 174 m 103 608 l 103 738 l 146 738 l 146 781 l 190 781 l 190 825 l 233 825 l 233 868 l 320 868 l 320 911 l 667 911 l 667 868 l 754 868 l 754 825 l 798 825 l 798 781 l 841 781 l 841 738 l 884 738 l 884 608 l 841 608 l 841 694 l 798 694 l 798 738 l 754 738 l 754 781 l 667 781 l 667 825 l 320 825 l 320 781 l 233 781 l 233 738 l 190 738 l 190 694 l 146 694 l 146 608 l 103 608 z "},"ª":{"ha":498,"x_min":71,"x_max":418,"o":"m 71 174 l 71 260 l 418 260 l 418 174 l 71 174 m 288 391 l 288 434 l 331 434 l 331 521 l 201 521 l 201 477 l 157 477 l 157 434 l 201 434 l 201 391 l 288 391 m 157 304 l 157 347 l 114 347 l 114 391 l 71 391 l 71 521 l 114 521 l 114 564 l 157 564 l 157 608 l 331 608 l 331 694 l 157 694 l 157 651 l 71 651 l 71 694 l 114 694 l 114 738 l 157 738 l 157 781 l 331 781 l 331 738 l 374 738 l 374 694 l 418 694 l 418 304 l 331 304 l 331 347 l 288 347 l 288 304 l 157 304 z "},"«":{"ha":757,"x_min":26,"x_max":677,"o":"m 330 87 l 330 130 l 286 130 l 286 174 l 243 174 l 243 217 l 199 217 l 199 260 l 156 260 l 156 304 l 113 304 l 113 347 l 69 347 l 69 391 l 26 391 l 26 434 l 69 434 l 69 477 l 113 477 l 113 521 l 156 521 l 156 564 l 199 564 l 199 608 l 243 608 l 243 651 l 286 651 l 286 694 l 330 694 l 330 738 l 373 738 l 373 694 l 416 694 l 416 651 l 373 651 l 373 608 l 330 608 l 330 564 l 286 564 l 286 521 l 243 521 l 243 477 l 199 477 l 199 434 l 156 434 l 156 391 l 199 391 l 199 347 l 243 347 l 243 304 l 286 304 l 286 260 l 330 260 l 330 217 l 373 217 l 373 174 l 416 174 l 416 130 l 373 130 l 373 87 l 330 87 m 590 87 l 590 130 l 547 130 l 547 174 l 503 174 l 503 217 l 460 217 l 460 260 l 416 260 l 416 304 l 373 304 l 373 347 l 330 347 l 330 391 l 286 391 l 286 434 l 330 434 l 330 477 l 373 477 l 373 521 l 416 521 l 416 564 l 460 564 l 460 608 l 503 608 l 503 651 l 547 651 l 547 694 l 590 694 l 590 738 l 633 738 l 633 694 l 677 694 l 677 651 l 633 651 l 633 608 l 590 608 l 590 564 l 547 564 l 547 521 l 503 521 l 503 477 l 460 477 l 460 434 l 416 434 l 416 391 l 460 391 l 460 347 l 503 347 l 503 304 l 547 304 l 547 260 l 590 260 l 590 217 l 633 217 l 633 174 l 677 174 l 677 130 l 633 130 l 633 87 l 590 87 z "},"¬":{"ha":1032,"x_min":12,"x_max":967,"o":"m 880 0 l 880 391 l 12 391 l 12 477 l 967 477 l 967 0 l 880 0 z "},"®":{"ha":990,"x_min":60,"x_max":928,"o":"m 320 0 l 320 43 l 233 43 l 233 87 l 190 87 l 190 130 l 146 130 l 146 174 l 103 174 l 103 304 l 146 304 l 146 217 l 190 217 l 190 174 l 233 174 l 233 130 l 320 130 l 320 87 l 667 87 l 667 130 l 754 130 l 754 174 l 798 174 l 798 217 l 841 217 l 841 304 l 884 304 l 884 174 l 841 174 l 841 130 l 798 130 l 798 87 l 754 87 l 754 43 l 667 43 l 667 0 l 320 0 m 60 304 l 60 608 l 103 608 l 103 304 l 60 304 m 624 477 l 624 608 l 407 608 l 407 477 l 624 477 m 884 304 l 884 608 l 928 608 l 928 304 l 884 304 m 320 217 l 320 694 l 624 694 l 624 651 l 667 651 l 667 608 l 711 608 l 711 477 l 667 477 l 667 434 l 537 434 l 537 391 l 581 391 l 581 347 l 624 347 l 624 304 l 667 304 l 667 260 l 711 260 l 711 217 l 581 217 l 581 260 l 537 260 l 537 304 l 494 304 l 494 347 l 450 347 l 450 391 l 407 391 l 407 217 l 320 217 m 103 608 l 103 738 l 146 738 l 146 781 l 190 781 l 190 825 l 233 825 l 233 868 l 320 868 l 320 911 l 667 911 l 667 868 l 754 868 l 754 825 l 798 825 l 798 781 l 841 781 l 841 738 l 884 738 l 884 608 l 841 608 l 841 694 l 798 694 l 798 738 l 754 738 l 754 781 l 667 781 l 667 825 l 320 825 l 320 781 l 233 781 l 233 738 l 190 738 l 190 694 l 146 694 l 146 608 l 103 608 z "},"¯":{"ha":673,"x_min":20,"x_max":585,"o":"m 20 825 l 20 911 l 585 911 l 585 825 l 20 825 z "},"°":{"ha":362,"x_min":22,"x_max":282,"o":"m 195 738 l 195 825 l 109 825 l 109 738 l 195 738 m 109 651 l 109 694 l 65 694 l 65 738 l 22 738 l 22 825 l 65 825 l 65 868 l 109 868 l 109 911 l 195 911 l 195 868 l 239 868 l 239 825 l 282 825 l 282 738 l 239 738 l 239 694 l 195 694 l 195 651 l 109 651 z "},"±":{"ha":770,"x_min":54,"x_max":705,"o":"m 54 0 l 54 130 l 705 130 l 705 0 l 54 0 m 315 174 l 315 434 l 54 434 l 54 564 l 315 564 l 315 825 l 445 825 l 445 564 l 705 564 l 705 434 l 445 434 l 445 174 l 315 174 z "},"²":{"ha":347,"x_min":50,"x_max":267,"o":"m 50 608 l 50 694 l 94 694 l 94 738 l 137 738 l 137 781 l 180 781 l 180 868 l 94 868 l 94 825 l 50 825 l 50 911 l 224 911 l 224 868 l 267 868 l 267 781 l 224 781 l 224 738 l 180 738 l 180 694 l 137 694 l 137 651 l 224 651 l 224 694 l 267 694 l 267 608 l 50 608 z "},"³":{"ha":342,"x_min":45,"x_max":262,"o":"m 45 651 l 45 694 l 88 694 l 88 651 l 45 651 m 45 825 l 45 868 l 88 868 l 88 825 l 45 825 m 88 608 l 88 651 l 175 651 l 175 738 l 132 738 l 132 781 l 175 781 l 175 868 l 88 868 l 88 911 l 218 911 l 218 868 l 262 868 l 262 781 l 218 781 l 218 738 l 262 738 l 262 651 l 218 651 l 218 608 l 88 608 z "},"´":{"ha":328,"x_min":23,"x_max":240,"o":"m 23 781 l 23 825 l 66 825 l 66 868 l 110 868 l 110 911 l 240 911 l 240 868 l 197 868 l 197 825 l 153 825 l 153 781 l 23 781 z "},"µ":{"ha":662,"x_min":72,"x_max":593,"o":"m 72 -260 l 72 651 l 202 651 l 202 174 l 245 174 l 245 130 l 376 130 l 376 174 l 419 174 l 419 217 l 463 217 l 463 651 l 593 651 l 593 0 l 463 0 l 463 87 l 419 87 l 419 43 l 376 43 l 376 0 l 245 0 l 245 43 l 202 43 l 202 -260 l 72 -260 z "},"¶":{"ha":703,"x_min":50,"x_max":614,"o":"m 311 -217 l 311 391 l 224 391 l 224 434 l 137 434 l 137 477 l 94 477 l 94 521 l 50 521 l 50 781 l 94 781 l 94 825 l 137 825 l 137 868 l 224 868 l 224 911 l 614 911 l 614 -217 l 528 -217 l 528 868 l 397 868 l 397 -217 l 311 -217 z "},"·":{"ha":255,"x_min":45,"x_max":175,"o":"m 45 608 l 45 738 l 175 738 l 175 608 l 45 608 z "},"¸":{"ha":312,"x_min":-26,"x_max":235,"o":"m 18 -260 l 18 -217 l -26 -217 l -26 -130 l 18 -130 l 18 -174 l 104 -174 l 104 -87 l 18 -87 l 18 0 l 61 0 l 61 -43 l 191 -43 l 191 -87 l 235 -87 l 235 -217 l 191 -217 l 191 -260 l 18 -260 z "},"¹":{"ha":273,"x_min":11,"x_max":184,"o":"m 11 781 l 11 825 l 54 825 l 54 781 l 11 781 m 98 651 l 98 825 l 54 825 l 54 868 l 98 868 l 98 911 l 184 911 l 184 651 l 98 651 z "},"º":{"ha":541,"x_min":71,"x_max":461,"o":"m 71 174 l 71 260 l 461 260 l 461 174 l 71 174 m 331 391 l 331 434 l 374 434 l 374 651 l 331 651 l 331 694 l 201 694 l 201 651 l 157 651 l 157 434 l 201 434 l 201 391 l 331 391 m 157 304 l 157 347 l 114 347 l 114 391 l 71 391 l 71 694 l 114 694 l 114 738 l 157 738 l 157 781 l 374 781 l 374 738 l 418 738 l 418 694 l 461 694 l 461 391 l 418 391 l 418 347 l 374 347 l 374 304 l 157 304 z "},"»":{"ha":757,"x_min":66,"x_max":718,"o":"m 110 87 l 110 130 l 66 130 l 66 174 l 110 174 l 110 217 l 153 217 l 153 260 l 197 260 l 197 304 l 240 304 l 240 347 l 283 347 l 283 391 l 327 391 l 327 434 l 283 434 l 283 477 l 240 477 l 240 521 l 197 521 l 197 564 l 153 564 l 153 608 l 110 608 l 110 651 l 66 651 l 66 694 l 110 694 l 110 738 l 153 738 l 153 694 l 197 694 l 197 651 l 240 651 l 240 608 l 283 608 l 283 564 l 327 564 l 327 521 l 370 521 l 370 477 l 414 477 l 414 434 l 457 434 l 457 391 l 414 391 l 414 347 l 370 347 l 370 304 l 327 304 l 327 260 l 283 260 l 283 217 l 240 217 l 240 174 l 197 174 l 197 130 l 153 130 l 153 87 l 110 87 m 370 87 l 370 130 l 327 130 l 327 174 l 370 174 l 370 217 l 414 217 l 414 260 l 457 260 l 457 304 l 500 304 l 500 347 l 544 347 l 544 391 l 587 391 l 587 434 l 544 434 l 544 477 l 500 477 l 500 521 l 457 521 l 457 564 l 414 564 l 414 608 l 370 608 l 370 651 l 327 651 l 327 694 l 370 694 l 370 738 l 414 738 l 414 694 l 457 694 l 457 651 l 500 651 l 500 608 l 544 608 l 544 564 l 587 564 l 587 521 l 631 521 l 631 477 l 674 477 l 674 434 l 718 434 l 718 391 l 674 391 l 674 347 l 631 347 l 631 304 l 587 304 l 587 260 l 544 260 l 544 217 l 500 217 l 500 174 l 457 174 l 457 130 l 414 130 l 414 87 l 370 87 z "},"¼":{"ha":989,"x_min":62,"x_max":930,"o":"m 800 174 l 800 304 l 757 304 l 757 260 l 713 260 l 713 217 l 670 217 l 670 174 l 800 174 m 800 0 l 800 87 l 583 87 l 583 217 l 627 217 l 627 260 l 670 260 l 670 304 l 713 304 l 713 347 l 757 347 l 757 391 l 800 391 l 800 434 l 887 434 l 887 174 l 930 174 l 930 87 l 887 87 l 887 0 l 800 0 m 149 434 l 149 651 l 62 651 l 62 694 l 106 694 l 106 738 l 149 738 l 149 781 l 236 781 l 236 434 l 149 434 m 62 0 l 62 43 l 106 43 l 106 87 l 149 87 l 149 130 l 193 130 l 193 174 l 236 174 l 236 217 l 279 217 l 279 260 l 323 260 l 323 304 l 366 304 l 366 347 l 410 347 l 410 391 l 453 391 l 453 434 l 496 434 l 496 477 l 540 477 l 540 521 l 583 521 l 583 564 l 627 564 l 627 608 l 670 608 l 670 651 l 713 651 l 713 694 l 757 694 l 757 738 l 800 738 l 800 781 l 887 781 l 887 738 l 844 738 l 844 694 l 800 694 l 800 651 l 757 651 l 757 608 l 713 608 l 713 564 l 670 564 l 670 521 l 627 521 l 627 477 l 583 477 l 583 434 l 540 434 l 540 391 l 496 391 l 496 347 l 453 347 l 453 304 l 410 304 l 410 260 l 366 260 l 366 217 l 323 217 l 323 174 l 279 174 l 279 130 l 236 130 l 236 87 l 193 87 l 193 43 l 149 43 l 149 0 l 62 0 z "},"½":{"ha":1039,"x_min":62,"x_max":974,"o":"m 670 0 l 670 87 l 713 87 l 713 130 l 757 130 l 757 174 l 800 174 l 800 217 l 844 217 l 844 260 l 887 260 l 887 347 l 757 347 l 757 304 l 670 304 l 670 347 l 713 347 l 713 391 l 757 391 l 757 434 l 930 434 l 930 391 l 974 391 l 974 260 l 930 260 l 930 217 l 887 217 l 887 174 l 844 174 l 844 130 l 800 130 l 800 87 l 974 87 l 974 0 l 670 0 m 149 434 l 149 651 l 62 651 l 62 694 l 106 694 l 106 738 l 149 738 l 149 781 l 236 781 l 236 434 l 149 434 m 62 0 l 62 43 l 106 43 l 106 87 l 149 87 l 149 130 l 193 130 l 193 174 l 236 174 l 236 217 l 279 217 l 279 260 l 323 260 l 323 304 l 366 304 l 366 347 l 410 347 l 410 391 l 453 391 l 453 434 l 496 434 l 496 477 l 540 477 l 540 521 l 583 521 l 583 564 l 627 564 l 627 608 l 670 608 l 670 651 l 713 651 l 713 694 l 757 694 l 757 738 l 800 738 l 800 781 l 887 781 l 887 738 l 844 738 l 844 694 l 800 694 l 800 651 l 757 651 l 757 608 l 713 608 l 713 564 l 670 564 l 670 521 l 627 521 l 627 477 l 583 477 l 583 434 l 540 434 l 540 391 l 496 391 l 496 347 l 453 347 l 453 304 l 410 304 l 410 260 l 366 260 l 366 217 l 323 217 l 323 174 l 279 174 l 279 130 l 236 130 l 236 87 l 193 87 l 193 43 l 149 43 l 149 0 l 62 0 z "},"¾":{"ha":1000,"x_min":73,"x_max":941,"o":"m 811 174 l 811 304 l 768 304 l 768 260 l 724 260 l 724 217 l 681 217 l 681 174 l 811 174 m 811 0 l 811 87 l 594 87 l 594 217 l 637 217 l 637 260 l 681 260 l 681 304 l 724 304 l 724 347 l 768 347 l 768 391 l 811 391 l 811 434 l 898 434 l 898 174 l 941 174 l 941 87 l 898 87 l 898 0 l 811 0 m 117 391 l 117 434 l 73 434 l 73 521 l 160 521 l 160 434 l 247 434 l 247 564 l 160 564 l 160 608 l 247 608 l 247 738 l 160 738 l 160 651 l 73 651 l 73 738 l 117 738 l 117 781 l 290 781 l 290 738 l 334 738 l 334 608 l 290 608 l 290 564 l 334 564 l 334 434 l 290 434 l 290 391 l 117 391 m 73 0 l 73 43 l 117 43 l 117 87 l 160 87 l 160 130 l 203 130 l 203 174 l 247 174 l 247 217 l 290 217 l 290 260 l 334 260 l 334 304 l 377 304 l 377 347 l 420 347 l 420 391 l 464 391 l 464 434 l 507 434 l 507 477 l 551 477 l 551 521 l 594 521 l 594 564 l 637 564 l 637 608 l 681 608 l 681 651 l 724 651 l 724 694 l 768 694 l 768 738 l 811 738 l 811 781 l 898 781 l 898 738 l 854 738 l 854 694 l 811 694 l 811 651 l 768 651 l 768 608 l 724 608 l 724 564 l 681 564 l 681 521 l 637 521 l 637 477 l 594 477 l 594 434 l 551 434 l 551 391 l 507 391 l 507 347 l 464 347 l 464 304 l 420 304 l 420 260 l 377 260 l 377 217 l 334 217 l 334 174 l 290 174 l 290 130 l 247 130 l 247 87 l 203 87 l 203 43 l 160 43 l 160 0 l 73 0 z "},"¿":{"ha":680,"x_min":41,"x_max":648,"o":"m 214 0 l 214 43 l 127 43 l 127 87 l 84 87 l 84 130 l 41 130 l 41 347 l 84 347 l 84 391 l 127 391 l 127 434 l 171 434 l 171 477 l 214 477 l 214 521 l 258 521 l 258 608 l 388 608 l 388 477 l 345 477 l 345 434 l 301 434 l 301 391 l 258 391 l 258 347 l 214 347 l 214 304 l 171 304 l 171 174 l 214 174 l 214 130 l 431 130 l 431 174 l 475 174 l 475 217 l 518 217 l 518 304 l 648 304 l 648 217 l 605 217 l 605 130 l 562 130 l 562 87 l 518 87 l 518 43 l 475 43 l 475 0 l 214 0 m 258 738 l 258 868 l 388 868 l 388 738 l 258 738 z "},"À":{"ha":913,"x_min":23,"x_max":848,"o":"m 587 391 l 587 434 l 544 434 l 544 521 l 500 521 l 500 608 l 457 608 l 457 694 l 414 694 l 414 608 l 370 608 l 370 521 l 327 521 l 327 434 l 283 434 l 283 391 l 587 391 m 23 0 l 23 130 l 66 130 l 66 217 l 110 217 l 110 347 l 153 347 l 153 434 l 197 434 l 197 521 l 240 521 l 240 608 l 283 608 l 283 694 l 327 694 l 327 781 l 370 781 l 370 868 l 500 868 l 500 781 l 544 781 l 544 694 l 587 694 l 587 608 l 631 608 l 631 521 l 674 521 l 674 434 l 718 434 l 718 347 l 761 347 l 761 217 l 804 217 l 804 130 l 848 130 l 848 0 l 718 0 l 718 87 l 674 87 l 674 174 l 631 174 l 631 260 l 240 260 l 240 174 l 197 174 l 197 87 l 153 87 l 153 0 l 23 0 m 370 955 l 370 998 l 327 998 l 327 1042 l 283 1042 l 283 1085 l 414 1085 l 414 1042 l 457 1042 l 457 998 l 500 998 l 500 955 l 370 955 z "},"Á":{"ha":911,"x_min":22,"x_max":846,"o":"m 586 391 l 586 434 l 543 434 l 543 521 l 499 521 l 499 608 l 456 608 l 456 694 l 412 694 l 412 608 l 369 608 l 369 521 l 326 521 l 326 434 l 282 434 l 282 391 l 586 391 m 22 0 l 22 130 l 65 130 l 65 217 l 109 217 l 109 347 l 152 347 l 152 434 l 195 434 l 195 521 l 239 521 l 239 608 l 282 608 l 282 694 l 326 694 l 326 781 l 369 781 l 369 868 l 499 868 l 499 781 l 543 781 l 543 694 l 586 694 l 586 608 l 629 608 l 629 521 l 673 521 l 673 434 l 716 434 l 716 347 l 760 347 l 760 217 l 803 217 l 803 130 l 846 130 l 846 0 l 716 0 l 716 87 l 673 87 l 673 174 l 629 174 l 629 260 l 239 260 l 239 174 l 195 174 l 195 87 l 152 87 l 152 0 l 22 0 m 369 955 l 369 998 l 412 998 l 412 1042 l 456 1042 l 456 1085 l 586 1085 l 586 1042 l 543 1042 l 543 998 l 499 998 l 499 955 l 369 955 z "},"Â":{"ha":921,"x_min":31,"x_max":856,"o":"m 595 391 l 595 434 l 552 434 l 552 521 l 509 521 l 509 608 l 465 608 l 465 694 l 422 694 l 422 608 l 378 608 l 378 521 l 335 521 l 335 434 l 292 434 l 292 391 l 595 391 m 31 0 l 31 130 l 75 130 l 75 217 l 118 217 l 118 347 l 161 347 l 161 434 l 205 434 l 205 521 l 248 521 l 248 608 l 292 608 l 292 694 l 335 694 l 335 781 l 378 781 l 378 868 l 509 868 l 509 781 l 552 781 l 552 694 l 595 694 l 595 608 l 639 608 l 639 521 l 682 521 l 682 434 l 726 434 l 726 347 l 769 347 l 769 217 l 812 217 l 812 130 l 856 130 l 856 0 l 726 0 l 726 87 l 682 87 l 682 174 l 639 174 l 639 260 l 248 260 l 248 174 l 205 174 l 205 87 l 161 87 l 161 0 l 31 0 m 205 868 l 205 911 l 248 911 l 248 955 l 292 955 l 292 998 l 335 998 l 335 1042 l 378 1042 l 378 1085 l 509 1085 l 509 1042 l 552 1042 l 552 998 l 595 998 l 595 955 l 639 955 l 639 911 l 682 911 l 682 868 l 595 868 l 595 911 l 509 911 l 509 955 l 465 955 l 465 998 l 422 998 l 422 955 l 378 955 l 378 911 l 292 911 l 292 868 l 205 868 z "},"Ã":{"ha":916,"x_min":26,"x_max":850,"o":"m 590 391 l 590 434 l 547 434 l 547 521 l 503 521 l 503 608 l 460 608 l 460 694 l 416 694 l 416 608 l 373 608 l 373 521 l 330 521 l 330 434 l 286 434 l 286 391 l 590 391 m 26 0 l 26 130 l 69 130 l 69 217 l 113 217 l 113 347 l 156 347 l 156 434 l 199 434 l 199 521 l 243 521 l 243 608 l 286 608 l 286 694 l 330 694 l 330 781 l 373 781 l 373 868 l 503 868 l 503 781 l 547 781 l 547 694 l 590 694 l 590 608 l 633 608 l 633 521 l 677 521 l 677 434 l 720 434 l 720 347 l 764 347 l 764 217 l 807 217 l 807 130 l 850 130 l 850 0 l 720 0 l 720 87 l 677 87 l 677 174 l 633 174 l 633 260 l 243 260 l 243 174 l 199 174 l 199 87 l 156 87 l 156 0 l 26 0 m 460 911 l 460 955 l 416 955 l 416 998 l 373 998 l 373 1042 l 286 1042 l 286 998 l 243 998 l 243 955 l 199 955 l 199 1042 l 243 1042 l 243 1085 l 286 1085 l 286 1128 l 416 1128 l 416 1085 l 460 1085 l 460 1042 l 503 1042 l 503 998 l 590 998 l 590 1042 l 633 1042 l 633 1085 l 677 1085 l 677 998 l 633 998 l 633 955 l 590 955 l 590 911 l 460 911 z "},"Ä":{"ha":914,"x_min":24,"x_max":849,"o":"m 589 391 l 589 434 l 545 434 l 545 521 l 502 521 l 502 608 l 458 608 l 458 694 l 415 694 l 415 608 l 372 608 l 372 521 l 328 521 l 328 434 l 285 434 l 285 391 l 589 391 m 24 0 l 24 130 l 68 130 l 68 217 l 111 217 l 111 347 l 155 347 l 155 434 l 198 434 l 198 521 l 241 521 l 241 608 l 285 608 l 285 694 l 328 694 l 328 781 l 372 781 l 372 868 l 502 868 l 502 781 l 545 781 l 545 694 l 589 694 l 589 608 l 632 608 l 632 521 l 675 521 l 675 434 l 719 434 l 719 347 l 762 347 l 762 217 l 806 217 l 806 130 l 849 130 l 849 0 l 719 0 l 719 87 l 675 87 l 675 174 l 632 174 l 632 260 l 241 260 l 241 174 l 198 174 l 198 87 l 155 87 l 155 0 l 24 0 m 241 955 l 241 1085 l 372 1085 l 372 955 l 241 955 m 502 955 l 502 1085 l 632 1085 l 632 955 l 502 955 z "},"Å":{"ha":913,"x_min":23,"x_max":848,"o":"m 587 391 l 587 434 l 544 434 l 544 521 l 500 521 l 500 608 l 457 608 l 457 694 l 414 694 l 414 608 l 370 608 l 370 521 l 327 521 l 327 434 l 283 434 l 283 391 l 587 391 m 457 868 l 457 911 l 500 911 l 500 955 l 457 955 l 457 998 l 414 998 l 414 955 l 370 955 l 370 911 l 414 911 l 414 868 l 457 868 m 23 0 l 23 130 l 66 130 l 66 217 l 110 217 l 110 347 l 153 347 l 153 434 l 197 434 l 197 521 l 240 521 l 240 608 l 283 608 l 283 694 l 327 694 l 327 781 l 370 781 l 370 868 l 327 868 l 327 998 l 370 998 l 370 1042 l 500 1042 l 500 998 l 544 998 l 544 868 l 500 868 l 500 781 l 544 781 l 544 694 l 587 694 l 587 608 l 631 608 l 631 521 l 674 521 l 674 434 l 718 434 l 718 347 l 761 347 l 761 217 l 804 217 l 804 130 l 848 130 l 848 0 l 718 0 l 718 87 l 674 87 l 674 174 l 631 174 l 631 260 l 240 260 l 240 174 l 197 174 l 197 87 l 153 87 l 153 0 l 23 0 z "},"Æ":{"ha":1305,"x_min":24,"x_max":1240,"o":"m 589 391 l 589 434 l 545 434 l 545 521 l 502 521 l 502 608 l 458 608 l 458 651 l 415 651 l 415 608 l 372 608 l 372 521 l 328 521 l 328 434 l 285 434 l 285 391 l 589 391 m 24 0 l 24 130 l 68 130 l 68 217 l 111 217 l 111 347 l 155 347 l 155 434 l 198 434 l 198 521 l 241 521 l 241 608 l 285 608 l 285 694 l 328 694 l 328 781 l 372 781 l 372 868 l 936 868 l 936 738 l 545 738 l 545 694 l 589 694 l 589 608 l 632 608 l 632 521 l 1066 521 l 1066 391 l 719 391 l 719 347 l 762 347 l 762 217 l 806 217 l 806 130 l 1240 130 l 1240 0 l 719 0 l 719 87 l 675 87 l 675 174 l 632 174 l 632 260 l 241 260 l 241 174 l 198 174 l 198 87 l 155 87 l 155 0 l 24 0 z "},"Ç":{"ha":898,"x_min":61,"x_max":842,"o":"m 365 -260 l 365 -217 l 321 -217 l 321 -130 l 365 -130 l 365 -174 l 452 -174 l 452 -87 l 365 -87 l 365 43 l 235 43 l 235 87 l 191 87 l 191 130 l 148 130 l 148 174 l 104 174 l 104 260 l 61 260 l 61 608 l 104 608 l 104 694 l 148 694 l 148 738 l 191 738 l 191 781 l 235 781 l 235 825 l 365 825 l 365 868 l 582 868 l 582 825 l 712 825 l 712 781 l 755 781 l 755 694 l 799 694 l 799 651 l 842 651 l 842 608 l 669 608 l 669 651 l 625 651 l 625 694 l 538 694 l 538 738 l 408 738 l 408 694 l 321 694 l 321 651 l 278 651 l 278 608 l 235 608 l 235 521 l 191 521 l 191 347 l 235 347 l 235 260 l 278 260 l 278 217 l 321 217 l 321 174 l 408 174 l 408 130 l 538 130 l 538 174 l 625 174 l 625 217 l 669 217 l 669 260 l 842 260 l 842 217 l 799 217 l 799 174 l 755 174 l 755 87 l 712 87 l 712 43 l 582 43 l 582 0 l 408 0 l 408 -43 l 538 -43 l 538 -87 l 582 -87 l 582 -217 l 538 -217 l 538 -260 l 365 -260 z "},"È":{"ha":678,"x_min":77,"x_max":598,"o":"m 77 0 l 77 868 l 598 868 l 598 738 l 208 738 l 208 521 l 598 521 l 598 391 l 208 391 l 208 130 l 598 130 l 598 0 l 77 0 m 294 955 l 294 998 l 251 998 l 251 1042 l 208 1042 l 208 1085 l 338 1085 l 338 1042 l 381 1042 l 381 998 l 425 998 l 425 955 l 294 955 z "},"É":{"ha":677,"x_min":76,"x_max":597,"o":"m 76 0 l 76 868 l 597 868 l 597 738 l 206 738 l 206 521 l 597 521 l 597 391 l 206 391 l 206 130 l 597 130 l 597 0 l 76 0 m 293 955 l 293 998 l 336 998 l 336 1042 l 380 1042 l 380 1085 l 510 1085 l 510 1042 l 467 1042 l 467 998 l 423 998 l 423 955 l 293 955 z "},"Ê":{"ha":678,"x_min":77,"x_max":598,"o":"m 77 0 l 77 868 l 598 868 l 598 738 l 208 738 l 208 521 l 598 521 l 598 391 l 208 391 l 208 130 l 598 130 l 598 0 l 77 0 m 121 911 l 121 955 l 164 955 l 164 998 l 208 998 l 208 1042 l 251 1042 l 251 1085 l 425 1085 l 425 1042 l 468 1042 l 468 998 l 511 998 l 511 955 l 555 955 l 555 911 l 468 911 l 468 955 l 381 955 l 381 998 l 294 998 l 294 955 l 208 955 l 208 911 l 121 911 z "},"Ë":{"ha":678,"x_min":77,"x_max":598,"o":"m 77 0 l 77 868 l 598 868 l 598 738 l 208 738 l 208 521 l 598 521 l 598 391 l 208 391 l 208 130 l 598 130 l 598 0 l 77 0 m 164 955 l 164 1085 l 294 1085 l 294 955 l 164 955 m 381 955 l 381 1085 l 511 1085 l 511 955 l 381 955 z "},"Ì":{"ha":302,"x_min":-3,"x_max":214,"o":"m 84 0 l 84 868 l 214 868 l 214 0 l 84 0 m 84 955 l 84 998 l 41 998 l 41 1042 l -3 1042 l -3 1085 l 127 1085 l 127 1042 l 171 1042 l 171 998 l 214 998 l 214 955 l 84 955 z "},"Í":{"ha":384,"x_min":79,"x_max":296,"o":"m 79 0 l 79 868 l 209 868 l 209 0 l 79 0 m 79 955 l 79 998 l 122 998 l 122 1042 l 165 1042 l 165 1085 l 296 1085 l 296 1042 l 252 1042 l 252 998 l 209 998 l 209 955 l 79 955 z "},"Î":{"ha":549,"x_min":-16,"x_max":461,"o":"m 157 0 l 157 868 l 288 868 l 288 0 l 157 0 m -16 868 l -16 911 l 27 911 l 27 955 l 71 955 l 71 998 l 114 998 l 114 1042 l 157 1042 l 157 1085 l 288 1085 l 288 1042 l 331 1042 l 331 998 l 374 998 l 374 955 l 418 955 l 418 911 l 461 911 l 461 868 l 374 868 l 374 911 l 288 911 l 288 955 l 244 955 l 244 998 l 201 998 l 201 955 l 157 955 l 157 911 l 71 911 l 71 868 l -16 868 z "},"Ï":{"ha":442,"x_min":-37,"x_max":354,"o":"m 94 0 l 94 868 l 224 868 l 224 0 l 94 0 m -37 955 l -37 1085 l 94 1085 l 94 955 l -37 955 m 224 955 l 224 1085 l 354 1085 l 354 955 l 224 955 z "},"Ð":{"ha":892,"x_min":49,"x_max":830,"o":"m 483 130 l 483 174 l 570 174 l 570 217 l 613 217 l 613 260 l 656 260 l 656 347 l 700 347 l 700 521 l 656 521 l 656 608 l 613 608 l 613 651 l 570 651 l 570 694 l 483 694 l 483 738 l 266 738 l 266 477 l 439 477 l 439 391 l 266 391 l 266 130 l 483 130 m 136 0 l 136 391 l 49 391 l 49 477 l 136 477 l 136 868 l 526 868 l 526 825 l 656 825 l 656 781 l 700 781 l 700 738 l 743 738 l 743 694 l 787 694 l 787 608 l 830 608 l 830 260 l 787 260 l 787 174 l 743 174 l 743 130 l 700 130 l 700 87 l 656 87 l 656 43 l 526 43 l 526 0 l 136 0 z "},"Ñ":{"ha":852,"x_min":77,"x_max":772,"o":"m 77 0 l 77 868 l 294 868 l 294 781 l 338 781 l 338 694 l 381 694 l 381 608 l 425 608 l 425 521 l 468 521 l 468 434 l 511 434 l 511 347 l 555 347 l 555 260 l 598 260 l 598 174 l 642 174 l 642 868 l 772 868 l 772 0 l 555 0 l 555 87 l 511 87 l 511 174 l 468 174 l 468 260 l 425 260 l 425 347 l 381 347 l 381 434 l 338 434 l 338 521 l 294 521 l 294 608 l 251 608 l 251 694 l 208 694 l 208 0 l 77 0 m 468 911 l 468 955 l 425 955 l 425 998 l 381 998 l 381 1042 l 294 1042 l 294 998 l 251 998 l 251 955 l 208 955 l 208 1042 l 251 1042 l 251 1085 l 294 1085 l 294 1128 l 425 1128 l 425 1085 l 468 1085 l 468 1042 l 511 1042 l 511 998 l 598 998 l 598 1042 l 642 1042 l 642 1085 l 685 1085 l 685 998 l 642 998 l 642 955 l 598 955 l 598 911 l 468 911 z "},"Ò":{"ha":943,"x_min":58,"x_max":883,"o":"m 536 130 l 536 174 l 623 174 l 623 217 l 666 217 l 666 260 l 709 260 l 709 347 l 753 347 l 753 521 l 709 521 l 709 608 l 666 608 l 666 651 l 623 651 l 623 694 l 536 694 l 536 738 l 406 738 l 406 694 l 319 694 l 319 651 l 275 651 l 275 608 l 232 608 l 232 521 l 189 521 l 189 347 l 232 347 l 232 260 l 275 260 l 275 217 l 319 217 l 319 174 l 406 174 l 406 130 l 536 130 m 362 0 l 362 43 l 232 43 l 232 87 l 189 87 l 189 130 l 145 130 l 145 174 l 102 174 l 102 260 l 58 260 l 58 608 l 102 608 l 102 694 l 145 694 l 145 738 l 189 738 l 189 781 l 232 781 l 232 825 l 362 825 l 362 868 l 579 868 l 579 825 l 709 825 l 709 781 l 753 781 l 753 738 l 796 738 l 796 694 l 840 694 l 840 608 l 883 608 l 883 260 l 840 260 l 840 174 l 796 174 l 796 130 l 753 130 l 753 87 l 709 87 l 709 43 l 579 43 l 579 0 l 362 0 m 406 955 l 406 998 l 362 998 l 362 1042 l 319 1042 l 319 1085 l 449 1085 l 449 1042 l 492 1042 l 492 998 l 536 998 l 536 955 l 406 955 z "},"Ó":{"ha":944,"x_min":58,"x_max":883,"o":"m 536 130 l 536 174 l 623 174 l 623 217 l 666 217 l 666 260 l 709 260 l 709 347 l 753 347 l 753 521 l 709 521 l 709 608 l 666 608 l 666 651 l 623 651 l 623 694 l 536 694 l 536 738 l 406 738 l 406 694 l 319 694 l 319 651 l 275 651 l 275 608 l 232 608 l 232 521 l 189 521 l 189 347 l 232 347 l 232 260 l 275 260 l 275 217 l 319 217 l 319 174 l 406 174 l 406 130 l 536 130 m 362 0 l 362 43 l 232 43 l 232 87 l 189 87 l 189 130 l 145 130 l 145 174 l 102 174 l 102 260 l 58 260 l 58 608 l 102 608 l 102 694 l 145 694 l 145 738 l 189 738 l 189 781 l 232 781 l 232 825 l 362 825 l 362 868 l 579 868 l 579 825 l 709 825 l 709 781 l 753 781 l 753 738 l 796 738 l 796 694 l 840 694 l 840 608 l 883 608 l 883 260 l 840 260 l 840 174 l 796 174 l 796 130 l 753 130 l 753 87 l 709 87 l 709 43 l 579 43 l 579 0 l 362 0 m 406 955 l 406 998 l 449 998 l 449 1042 l 492 1042 l 492 1085 l 623 1085 l 623 1042 l 579 1042 l 579 998 l 536 998 l 536 955 l 406 955 z "},"Ô":{"ha":945,"x_min":60,"x_max":884,"o":"m 537 130 l 537 174 l 624 174 l 624 217 l 667 217 l 667 260 l 711 260 l 711 347 l 754 347 l 754 521 l 711 521 l 711 608 l 667 608 l 667 651 l 624 651 l 624 694 l 537 694 l 537 738 l 407 738 l 407 694 l 320 694 l 320 651 l 277 651 l 277 608 l 233 608 l 233 521 l 190 521 l 190 347 l 233 347 l 233 260 l 277 260 l 277 217 l 320 217 l 320 174 l 407 174 l 407 130 l 537 130 m 363 0 l 363 43 l 233 43 l 233 87 l 190 87 l 190 130 l 146 130 l 146 174 l 103 174 l 103 260 l 60 260 l 60 608 l 103 608 l 103 694 l 146 694 l 146 738 l 190 738 l 190 781 l 233 781 l 233 825 l 363 825 l 363 868 l 581 868 l 581 825 l 711 825 l 711 781 l 754 781 l 754 738 l 798 738 l 798 694 l 841 694 l 841 608 l 884 608 l 884 260 l 841 260 l 841 174 l 798 174 l 798 130 l 754 130 l 754 87 l 711 87 l 711 43 l 581 43 l 581 0 l 363 0 m 233 868 l 233 911 l 277 911 l 277 955 l 320 955 l 320 998 l 363 998 l 363 1042 l 407 1042 l 407 1085 l 537 1085 l 537 1042 l 581 1042 l 581 998 l 624 998 l 624 955 l 667 955 l 667 911 l 711 911 l 711 868 l 624 868 l 624 911 l 537 911 l 537 955 l 494 955 l 494 998 l 450 998 l 450 955 l 407 955 l 407 911 l 320 911 l 320 868 l 233 868 z "},"Õ":{"ha":945,"x_min":60,"x_max":884,"o":"m 537 130 l 537 174 l 624 174 l 624 217 l 667 217 l 667 260 l 711 260 l 711 347 l 754 347 l 754 521 l 711 521 l 711 608 l 667 608 l 667 651 l 624 651 l 624 694 l 537 694 l 537 738 l 407 738 l 407 694 l 320 694 l 320 651 l 277 651 l 277 608 l 233 608 l 233 521 l 190 521 l 190 347 l 233 347 l 233 260 l 277 260 l 277 217 l 320 217 l 320 174 l 407 174 l 407 130 l 537 130 m 363 0 l 363 43 l 233 43 l 233 87 l 190 87 l 190 130 l 146 130 l 146 174 l 103 174 l 103 260 l 60 260 l 60 608 l 103 608 l 103 694 l 146 694 l 146 738 l 190 738 l 190 781 l 233 781 l 233 825 l 363 825 l 363 868 l 581 868 l 581 825 l 711 825 l 711 781 l 754 781 l 754 738 l 798 738 l 798 694 l 841 694 l 841 608 l 884 608 l 884 260 l 841 260 l 841 174 l 798 174 l 798 130 l 754 130 l 754 87 l 711 87 l 711 43 l 581 43 l 581 0 l 363 0 m 494 911 l 494 955 l 450 955 l 450 998 l 407 998 l 407 1042 l 320 1042 l 320 998 l 277 998 l 277 955 l 233 955 l 233 1042 l 277 1042 l 277 1085 l 320 1085 l 320 1128 l 450 1128 l 450 1085 l 494 1085 l 494 1042 l 537 1042 l 537 998 l 624 998 l 624 1042 l 667 1042 l 667 1085 l 711 1085 l 711 998 l 667 998 l 667 955 l 624 955 l 624 911 l 494 911 z "},"Ö":{"ha":944,"x_min":58,"x_max":883,"o":"m 536 130 l 536 174 l 623 174 l 623 217 l 666 217 l 666 260 l 709 260 l 709 347 l 753 347 l 753 521 l 709 521 l 709 608 l 666 608 l 666 651 l 623 651 l 623 694 l 536 694 l 536 738 l 406 738 l 406 694 l 319 694 l 319 651 l 275 651 l 275 608 l 232 608 l 232 521 l 189 521 l 189 347 l 232 347 l 232 260 l 275 260 l 275 217 l 319 217 l 319 174 l 406 174 l 406 130 l 536 130 m 362 0 l 362 43 l 232 43 l 232 87 l 189 87 l 189 130 l 145 130 l 145 174 l 102 174 l 102 260 l 58 260 l 58 608 l 102 608 l 102 694 l 145 694 l 145 738 l 189 738 l 189 781 l 232 781 l 232 825 l 362 825 l 362 868 l 579 868 l 579 825 l 709 825 l 709 781 l 753 781 l 753 738 l 796 738 l 796 694 l 840 694 l 840 608 l 883 608 l 883 260 l 840 260 l 840 174 l 796 174 l 796 130 l 753 130 l 753 87 l 709 87 l 709 43 l 579 43 l 579 0 l 362 0 m 275 955 l 275 1085 l 406 1085 l 406 955 l 275 955 m 536 955 l 536 1085 l 666 1085 l 666 955 l 536 955 z "},"×":{"ha":651,"x_min":65,"x_max":586,"o":"m 65 87 l 65 130 l 109 130 l 109 174 l 152 174 l 152 217 l 195 217 l 195 260 l 239 260 l 239 304 l 282 304 l 282 347 l 239 347 l 239 391 l 195 391 l 195 434 l 152 434 l 152 477 l 109 477 l 109 521 l 65 521 l 65 564 l 152 564 l 152 521 l 195 521 l 195 477 l 239 477 l 239 434 l 282 434 l 282 391 l 369 391 l 369 434 l 412 434 l 412 477 l 456 477 l 456 521 l 499 521 l 499 564 l 586 564 l 586 521 l 543 521 l 543 477 l 499 477 l 499 434 l 456 434 l 456 391 l 412 391 l 412 347 l 369 347 l 369 304 l 412 304 l 412 260 l 456 260 l 456 217 l 499 217 l 499 174 l 543 174 l 543 130 l 586 130 l 586 87 l 499 87 l 499 130 l 456 130 l 456 174 l 412 174 l 412 217 l 369 217 l 369 260 l 282 260 l 282 217 l 239 217 l 239 174 l 195 174 l 195 130 l 152 130 l 152 87 l 65 87 z "},"Ø":{"ha":1019,"x_min":71,"x_max":939,"o":"m 548 130 l 548 174 l 635 174 l 635 217 l 678 217 l 678 260 l 722 260 l 722 347 l 765 347 l 765 521 l 722 521 l 722 564 l 678 564 l 678 521 l 635 521 l 635 477 l 591 477 l 591 434 l 548 434 l 548 391 l 505 391 l 505 347 l 461 347 l 461 304 l 418 304 l 418 260 l 374 260 l 374 217 l 331 217 l 331 174 l 418 174 l 418 130 l 548 130 m 288 260 l 288 304 l 331 304 l 331 347 l 374 347 l 374 391 l 418 391 l 418 434 l 461 434 l 461 477 l 505 477 l 505 521 l 548 521 l 548 564 l 591 564 l 591 608 l 635 608 l 635 694 l 548 694 l 548 738 l 418 738 l 418 694 l 331 694 l 331 651 l 288 651 l 288 608 l 244 608 l 244 521 l 201 521 l 201 347 l 244 347 l 244 260 l 288 260 m 71 0 l 71 87 l 114 87 l 114 130 l 157 130 l 157 174 l 114 174 l 114 260 l 71 260 l 71 608 l 114 608 l 114 694 l 157 694 l 157 738 l 201 738 l 201 781 l 244 781 l 244 825 l 374 825 l 374 868 l 591 868 l 591 825 l 722 825 l 722 781 l 808 781 l 808 825 l 852 825 l 852 868 l 939 868 l 939 781 l 895 781 l 895 738 l 852 738 l 852 608 l 895 608 l 895 260 l 852 260 l 852 174 l 808 174 l 808 130 l 765 130 l 765 87 l 722 87 l 722 43 l 591 43 l 591 0 l 374 0 l 374 43 l 244 43 l 244 87 l 201 87 l 201 43 l 157 43 l 157 0 l 71 0 z "},"Ù":{"ha":806,"x_min":75,"x_max":726,"o":"m 248 0 l 248 43 l 161 43 l 161 87 l 118 87 l 118 174 l 75 174 l 75 868 l 205 868 l 205 260 l 248 260 l 248 174 l 292 174 l 292 130 l 509 130 l 509 174 l 552 174 l 552 260 l 595 260 l 595 868 l 726 868 l 726 174 l 682 174 l 682 87 l 639 87 l 639 43 l 552 43 l 552 0 l 248 0 m 335 955 l 335 998 l 292 998 l 292 1042 l 248 1042 l 248 1085 l 378 1085 l 378 1042 l 422 1042 l 422 998 l 465 998 l 465 955 l 335 955 z "},"Ú":{"ha":806,"x_min":75,"x_max":726,"o":"m 248 0 l 248 43 l 161 43 l 161 87 l 118 87 l 118 174 l 75 174 l 75 868 l 205 868 l 205 260 l 248 260 l 248 174 l 292 174 l 292 130 l 509 130 l 509 174 l 552 174 l 552 260 l 595 260 l 595 868 l 726 868 l 726 174 l 682 174 l 682 87 l 639 87 l 639 43 l 552 43 l 552 0 l 248 0 m 335 955 l 335 998 l 378 998 l 378 1042 l 422 1042 l 422 1085 l 552 1085 l 552 1042 l 509 1042 l 509 998 l 465 998 l 465 955 l 335 955 z "},"Û":{"ha":806,"x_min":75,"x_max":726,"o":"m 248 0 l 248 43 l 161 43 l 161 87 l 118 87 l 118 174 l 75 174 l 75 868 l 205 868 l 205 260 l 248 260 l 248 174 l 292 174 l 292 130 l 509 130 l 509 174 l 552 174 l 552 260 l 595 260 l 595 868 l 726 868 l 726 174 l 682 174 l 682 87 l 639 87 l 639 43 l 552 43 l 552 0 l 248 0 m 161 911 l 161 955 l 205 955 l 205 998 l 248 998 l 248 1042 l 292 1042 l 292 1085 l 335 1085 l 335 1128 l 465 1128 l 465 1085 l 509 1085 l 509 1042 l 552 1042 l 552 998 l 595 998 l 595 955 l 639 955 l 639 911 l 552 911 l 552 955 l 465 955 l 465 998 l 422 998 l 422 1042 l 378 1042 l 378 998 l 335 998 l 335 955 l 248 955 l 248 911 l 161 911 z "},"Ü":{"ha":806,"x_min":75,"x_max":726,"o":"m 248 0 l 248 43 l 161 43 l 161 87 l 118 87 l 118 174 l 75 174 l 75 868 l 205 868 l 205 260 l 248 260 l 248 174 l 292 174 l 292 130 l 509 130 l 509 174 l 552 174 l 552 260 l 595 260 l 595 868 l 726 868 l 726 174 l 682 174 l 682 87 l 639 87 l 639 43 l 552 43 l 552 0 l 248 0 z "},"Ý":{"ha":814,"x_min":-4,"x_max":734,"o":"m 300 0 l 300 304 l 256 304 l 256 391 l 213 391 l 213 477 l 170 477 l 170 564 l 126 564 l 126 651 l 83 651 l 83 738 l 39 738 l 39 825 l -4 825 l -4 868 l 170 868 l 170 781 l 213 781 l 213 694 l 256 694 l 256 608 l 300 608 l 300 521 l 343 521 l 343 434 l 387 434 l 387 521 l 430 521 l 430 608 l 473 608 l 473 694 l 517 694 l 517 781 l 560 781 l 560 868 l 734 868 l 734 825 l 690 825 l 690 738 l 647 738 l 647 651 l 604 651 l 604 564 l 560 564 l 560 477 l 517 477 l 517 391 l 473 391 l 473 304 l 430 304 l 430 0 l 300 0 m 300 955 l 300 998 l 343 998 l 343 1042 l 387 1042 l 387 1085 l 517 1085 l 517 1042 l 473 1042 l 473 998 l 430 998 l 430 955 l 300 955 z "},"Þ":{"ha":724,"x_min":77,"x_max":685,"o":"m 511 304 l 511 347 l 555 347 l 555 477 l 511 477 l 511 521 l 208 521 l 208 304 l 511 304 m 77 0 l 77 868 l 208 868 l 208 651 l 555 651 l 555 608 l 598 608 l 598 564 l 642 564 l 642 521 l 685 521 l 685 304 l 642 304 l 642 260 l 598 260 l 598 217 l 555 217 l 555 174 l 208 174 l 208 0 l 77 0 z "},"ß":{"ha":635,"x_min":61,"x_max":582,"o":"m 61 0 l 61 477 l 104 477 l 104 564 l 148 564 l 148 608 l 191 608 l 191 651 l 452 651 l 452 608 l 495 608 l 495 564 l 538 564 l 538 434 l 495 434 l 495 347 l 452 347 l 452 304 l 495 304 l 495 260 l 538 260 l 538 217 l 582 217 l 582 87 l 538 87 l 538 43 l 495 43 l 495 0 l 235 0 l 235 87 l 408 87 l 408 130 l 452 130 l 452 217 l 408 217 l 408 260 l 365 260 l 365 304 l 321 304 l 321 391 l 365 391 l 365 434 l 408 434 l 408 521 l 365 521 l 365 564 l 235 564 l 235 521 l 191 521 l 191 0 l 61 0 z "},"à":{"ha":688,"x_min":57,"x_max":621,"o":"m 404 130 l 404 174 l 448 174 l 448 217 l 491 217 l 491 434 l 448 434 l 448 477 l 404 477 l 404 521 l 231 521 l 231 477 l 187 477 l 187 174 l 231 174 l 231 130 l 404 130 m 231 0 l 231 43 l 144 43 l 144 87 l 100 87 l 100 174 l 57 174 l 57 477 l 100 477 l 100 564 l 144 564 l 144 608 l 231 608 l 231 651 l 404 651 l 404 608 l 448 608 l 448 564 l 491 564 l 491 651 l 621 651 l 621 0 l 491 0 l 491 87 l 448 87 l 448 43 l 404 43 l 404 0 l 231 0 m 274 738 l 274 781 l 231 781 l 231 825 l 187 825 l 187 868 l 317 868 l 317 825 l 361 825 l 361 781 l 404 781 l 404 738 l 274 738 z "},"á":{"ha":688,"x_min":54,"x_max":618,"o":"m 401 130 l 401 174 l 445 174 l 445 217 l 488 217 l 488 434 l 445 434 l 445 477 l 401 477 l 401 521 l 228 521 l 228 477 l 184 477 l 184 174 l 228 174 l 228 130 l 401 130 m 228 0 l 228 43 l 141 43 l 141 87 l 98 87 l 98 174 l 54 174 l 54 477 l 98 477 l 98 564 l 141 564 l 141 608 l 228 608 l 228 651 l 401 651 l 401 608 l 445 608 l 445 564 l 488 564 l 488 651 l 618 651 l 618 0 l 488 0 l 488 87 l 445 87 l 445 43 l 401 43 l 401 0 l 228 0 m 271 738 l 271 781 l 315 781 l 315 825 l 358 825 l 358 868 l 488 868 l 488 825 l 445 825 l 445 781 l 401 781 l 401 738 l 271 738 z "},"â":{"ha":696,"x_min":60,"x_max":624,"o":"m 407 130 l 407 174 l 450 174 l 450 217 l 494 217 l 494 434 l 450 434 l 450 477 l 407 477 l 407 521 l 233 521 l 233 477 l 190 477 l 190 174 l 233 174 l 233 130 l 407 130 m 233 0 l 233 43 l 146 43 l 146 87 l 103 87 l 103 174 l 60 174 l 60 477 l 103 477 l 103 564 l 146 564 l 146 608 l 233 608 l 233 651 l 407 651 l 407 608 l 450 608 l 450 564 l 494 564 l 494 651 l 624 651 l 624 0 l 494 0 l 494 87 l 450 87 l 450 43 l 407 43 l 407 0 l 233 0 m 146 694 l 146 738 l 190 738 l 190 781 l 233 781 l 233 825 l 277 825 l 277 868 l 450 868 l 450 825 l 494 825 l 494 781 l 537 781 l 537 738 l 581 738 l 581 694 l 494 694 l 494 738 l 407 738 l 407 781 l 320 781 l 320 738 l 233 738 l 233 694 l 146 694 z "},"ã":{"ha":703,"x_min":66,"x_max":631,"o":"m 414 130 l 414 174 l 457 174 l 457 217 l 500 217 l 500 434 l 457 434 l 457 477 l 414 477 l 414 521 l 240 521 l 240 477 l 197 477 l 197 174 l 240 174 l 240 130 l 414 130 m 240 0 l 240 43 l 153 43 l 153 87 l 110 87 l 110 174 l 66 174 l 66 477 l 110 477 l 110 564 l 153 564 l 153 608 l 240 608 l 240 651 l 414 651 l 414 608 l 457 608 l 457 564 l 500 564 l 500 651 l 631 651 l 631 0 l 500 0 l 500 87 l 457 87 l 457 43 l 414 43 l 414 0 l 240 0 m 370 694 l 370 738 l 327 738 l 327 781 l 283 781 l 283 825 l 197 825 l 197 781 l 153 781 l 153 738 l 110 738 l 110 825 l 153 825 l 153 868 l 197 868 l 197 911 l 327 911 l 327 868 l 370 868 l 370 825 l 414 825 l 414 781 l 500 781 l 500 825 l 544 825 l 544 868 l 587 868 l 587 781 l 544 781 l 544 738 l 500 738 l 500 694 l 370 694 z "},"ä":{"ha":693,"x_min":58,"x_max":623,"o":"m 406 130 l 406 174 l 449 174 l 449 217 l 492 217 l 492 434 l 449 434 l 449 477 l 406 477 l 406 521 l 232 521 l 232 477 l 189 477 l 189 174 l 232 174 l 232 130 l 406 130 m 232 0 l 232 43 l 145 43 l 145 87 l 102 87 l 102 174 l 58 174 l 58 477 l 102 477 l 102 564 l 145 564 l 145 608 l 232 608 l 232 651 l 406 651 l 406 608 l 449 608 l 449 564 l 492 564 l 492 651 l 623 651 l 623 0 l 492 0 l 492 87 l 449 87 l 449 43 l 406 43 l 406 0 l 232 0 m 189 738 l 189 868 l 319 868 l 319 738 l 189 738 m 406 738 l 406 868 l 536 868 l 536 738 l 406 738 z "},"å":{"ha":688,"x_min":56,"x_max":620,"o":"m 403 130 l 403 174 l 446 174 l 446 217 l 490 217 l 490 434 l 446 434 l 446 477 l 403 477 l 403 521 l 229 521 l 229 477 l 186 477 l 186 174 l 229 174 l 229 130 l 403 130 m 359 694 l 359 738 l 403 738 l 403 781 l 359 781 l 359 825 l 316 825 l 316 781 l 273 781 l 273 738 l 316 738 l 316 694 l 359 694 m 229 0 l 229 43 l 142 43 l 142 87 l 99 87 l 99 174 l 56 174 l 56 477 l 99 477 l 99 564 l 142 564 l 142 608 l 229 608 l 229 651 l 273 651 l 273 694 l 229 694 l 229 825 l 273 825 l 273 868 l 403 868 l 403 825 l 446 825 l 446 694 l 403 694 l 403 608 l 446 608 l 446 564 l 490 564 l 490 651 l 620 651 l 620 0 l 490 0 l 490 87 l 446 87 l 446 43 l 403 43 l 403 0 l 229 0 z "},"æ":{"ha":1066,"x_min":54,"x_max":1009,"o":"m 401 130 l 401 174 l 445 174 l 445 304 l 228 304 l 228 260 l 184 260 l 184 174 l 228 174 l 228 130 l 401 130 m 879 391 l 879 477 l 836 477 l 836 521 l 662 521 l 662 477 l 618 477 l 618 391 l 879 391 m 228 0 l 228 43 l 141 43 l 141 87 l 98 87 l 98 174 l 54 174 l 54 304 l 98 304 l 98 347 l 141 347 l 141 391 l 445 391 l 445 477 l 401 477 l 401 521 l 228 521 l 228 477 l 98 477 l 98 564 l 141 564 l 141 608 l 228 608 l 228 651 l 401 651 l 401 608 l 445 608 l 445 564 l 488 564 l 488 521 l 532 521 l 532 564 l 575 564 l 575 608 l 662 608 l 662 651 l 836 651 l 836 608 l 922 608 l 922 564 l 966 564 l 966 477 l 1009 477 l 1009 304 l 618 304 l 618 174 l 662 174 l 662 130 l 836 130 l 836 174 l 879 174 l 879 217 l 1009 217 l 1009 130 l 966 130 l 966 87 l 922 87 l 922 43 l 836 43 l 836 0 l 662 0 l 662 43 l 575 43 l 575 87 l 532 87 l 532 130 l 488 130 l 488 87 l 445 87 l 445 43 l 401 43 l 401 0 l 228 0 z "},"ç":{"ha":600,"x_min":58,"x_max":536,"o":"m 232 -260 l 232 -217 l 189 -217 l 189 -130 l 232 -130 l 232 -174 l 319 -174 l 319 -87 l 232 -87 l 232 43 l 145 43 l 145 87 l 102 87 l 102 174 l 58 174 l 58 477 l 102 477 l 102 564 l 145 564 l 145 608 l 232 608 l 232 651 l 406 651 l 406 608 l 492 608 l 492 564 l 536 564 l 536 434 l 449 434 l 449 477 l 406 477 l 406 521 l 232 521 l 232 477 l 189 477 l 189 174 l 232 174 l 232 130 l 406 130 l 406 174 l 449 174 l 449 217 l 536 217 l 536 87 l 492 87 l 492 43 l 406 43 l 406 0 l 275 0 l 275 -43 l 406 -43 l 406 -87 l 449 -87 l 449 -217 l 406 -217 l 406 -260 l 232 -260 z "},"è":{"ha":632,"x_min":57,"x_max":578,"o":"m 448 391 l 448 477 l 404 477 l 404 521 l 231 521 l 231 477 l 187 477 l 187 391 l 448 391 m 231 0 l 231 43 l 144 43 l 144 87 l 100 87 l 100 174 l 57 174 l 57 477 l 100 477 l 100 564 l 144 564 l 144 608 l 231 608 l 231 651 l 404 651 l 404 608 l 491 608 l 491 564 l 534 564 l 534 477 l 578 477 l 578 304 l 187 304 l 187 174 l 231 174 l 231 130 l 404 130 l 404 174 l 448 174 l 448 217 l 578 217 l 578 130 l 534 130 l 534 87 l 491 87 l 491 43 l 404 43 l 404 0 l 231 0 m 274 738 l 274 781 l 231 781 l 231 825 l 187 825 l 187 868 l 317 868 l 317 825 l 361 825 l 361 781 l 404 781 l 404 738 l 274 738 z "},"é":{"ha":636,"x_min":54,"x_max":575,"o":"m 445 391 l 445 477 l 401 477 l 401 521 l 228 521 l 228 477 l 184 477 l 184 391 l 445 391 m 228 0 l 228 43 l 141 43 l 141 87 l 98 87 l 98 174 l 54 174 l 54 477 l 98 477 l 98 564 l 141 564 l 141 608 l 228 608 l 228 651 l 401 651 l 401 608 l 488 608 l 488 564 l 532 564 l 532 477 l 575 477 l 575 304 l 184 304 l 184 174 l 228 174 l 228 130 l 401 130 l 401 174 l 445 174 l 445 217 l 575 217 l 575 130 l 532 130 l 532 87 l 488 87 l 488 43 l 401 43 l 401 0 l 228 0 m 271 738 l 271 781 l 315 781 l 315 825 l 358 825 l 358 868 l 488 868 l 488 825 l 445 825 l 445 781 l 401 781 l 401 738 l 271 738 z "},"ê":{"ha":650,"x_min":64,"x_max":585,"o":"m 454 391 l 454 477 l 411 477 l 411 521 l 237 521 l 237 477 l 194 477 l 194 391 l 454 391 m 237 0 l 237 43 l 151 43 l 151 87 l 107 87 l 107 174 l 64 174 l 64 477 l 107 477 l 107 564 l 151 564 l 151 608 l 237 608 l 237 651 l 411 651 l 411 608 l 498 608 l 498 564 l 541 564 l 541 477 l 585 477 l 585 304 l 194 304 l 194 174 l 237 174 l 237 130 l 411 130 l 411 174 l 454 174 l 454 217 l 585 217 l 585 130 l 541 130 l 541 87 l 498 87 l 498 43 l 411 43 l 411 0 l 237 0 m 107 694 l 107 738 l 151 738 l 151 781 l 194 781 l 194 825 l 237 825 l 237 868 l 411 868 l 411 825 l 454 825 l 454 781 l 498 781 l 498 738 l 541 738 l 541 694 l 454 694 l 454 738 l 368 738 l 368 781 l 281 781 l 281 738 l 194 738 l 194 694 l 107 694 z "},"ë":{"ha":643,"x_min":61,"x_max":582,"o":"m 452 391 l 452 477 l 408 477 l 408 521 l 235 521 l 235 477 l 191 477 l 191 391 l 452 391 m 235 0 l 235 43 l 148 43 l 148 87 l 104 87 l 104 174 l 61 174 l 61 477 l 104 477 l 104 564 l 148 564 l 148 608 l 235 608 l 235 651 l 408 651 l 408 608 l 495 608 l 495 564 l 538 564 l 538 477 l 582 477 l 582 304 l 191 304 l 191 174 l 235 174 l 235 130 l 408 130 l 408 174 l 452 174 l 452 217 l 582 217 l 582 130 l 538 130 l 538 87 l 495 87 l 495 43 l 408 43 l 408 0 l 235 0 m 148 738 l 148 868 l 278 868 l 278 738 l 148 738 m 365 738 l 365 868 l 495 868 l 495 738 l 365 738 z "},"ì":{"ha":323,"x_min":26,"x_max":243,"o":"m 113 0 l 113 651 l 243 651 l 243 0 l 113 0 m 113 738 l 113 781 l 69 781 l 69 825 l 26 825 l 26 868 l 156 868 l 156 825 l 199 825 l 199 781 l 243 781 l 243 738 l 113 738 z "},"í":{"ha":374,"x_min":77,"x_max":294,"o":"m 77 0 l 77 651 l 208 651 l 208 0 l 77 0 m 77 738 l 77 781 l 121 781 l 121 825 l 164 825 l 164 868 l 294 868 l 294 825 l 251 825 l 251 781 l 208 781 l 208 738 l 77 738 z "},"î":{"ha":502,"x_min":31,"x_max":422,"o":"m 161 0 l 161 651 l 292 651 l 292 0 l 161 0 m 31 694 l 31 738 l 75 738 l 75 781 l 118 781 l 118 825 l 161 825 l 161 868 l 205 868 l 205 911 l 248 911 l 248 868 l 292 868 l 292 825 l 335 825 l 335 781 l 378 781 l 378 738 l 422 738 l 422 694 l 335 694 l 335 738 l 248 738 l 248 781 l 205 781 l 205 738 l 118 738 l 118 694 l 31 694 z "},"ï":{"ha":491,"x_min":20,"x_max":411,"o":"m 151 0 l 151 651 l 281 651 l 281 0 l 151 0 m 20 738 l 20 868 l 151 868 l 151 738 l 20 738 m 281 738 l 281 868 l 411 868 l 411 738 l 281 738 z "},"ð":{"ha":701,"x_min":57,"x_max":621,"o":"m 448 130 l 448 174 l 491 174 l 491 477 l 448 477 l 448 521 l 231 521 l 231 477 l 187 477 l 187 174 l 231 174 l 231 130 l 448 130 m 231 0 l 231 43 l 144 43 l 144 87 l 100 87 l 100 174 l 57 174 l 57 477 l 100 477 l 100 564 l 144 564 l 144 608 l 231 608 l 231 651 l 448 651 l 448 608 l 491 608 l 491 694 l 448 694 l 448 738 l 361 738 l 361 694 l 231 694 l 231 738 l 274 738 l 274 781 l 317 781 l 317 825 l 187 825 l 187 911 l 361 911 l 361 868 l 404 868 l 404 911 l 448 911 l 448 955 l 534 955 l 534 868 l 491 868 l 491 781 l 534 781 l 534 738 l 578 738 l 578 694 l 621 694 l 621 174 l 578 174 l 578 87 l 534 87 l 534 43 l 448 43 l 448 0 l 231 0 z "},"ñ":{"ha":707,"x_min":73,"x_max":637,"o":"m 73 0 l 73 651 l 203 651 l 203 564 l 247 564 l 247 608 l 290 608 l 290 651 l 464 651 l 464 608 l 551 608 l 551 564 l 594 564 l 594 477 l 637 477 l 637 0 l 507 0 l 507 477 l 464 477 l 464 521 l 290 521 l 290 477 l 247 477 l 247 434 l 203 434 l 203 0 l 73 0 m 377 694 l 377 738 l 334 738 l 334 781 l 290 781 l 290 825 l 203 825 l 203 781 l 160 781 l 160 738 l 117 738 l 117 825 l 160 825 l 160 868 l 203 868 l 203 911 l 334 911 l 334 868 l 377 868 l 377 825 l 420 825 l 420 781 l 507 781 l 507 825 l 551 825 l 551 868 l 594 868 l 594 781 l 551 781 l 551 738 l 507 738 l 507 694 l 377 694 z "},"ò":{"ha":632,"x_min":57,"x_max":578,"o":"m 404 130 l 404 174 l 448 174 l 448 477 l 404 477 l 404 521 l 231 521 l 231 477 l 187 477 l 187 174 l 231 174 l 231 130 l 404 130 m 231 0 l 231 43 l 144 43 l 144 87 l 100 87 l 100 174 l 57 174 l 57 477 l 100 477 l 100 564 l 144 564 l 144 608 l 231 608 l 231 651 l 404 651 l 404 608 l 491 608 l 491 564 l 534 564 l 534 477 l 578 477 l 578 174 l 534 174 l 534 87 l 491 87 l 491 43 l 404 43 l 404 0 l 231 0 m 274 738 l 274 781 l 231 781 l 231 825 l 187 825 l 187 868 l 317 868 l 317 825 l 361 825 l 361 781 l 404 781 l 404 738 l 274 738 z "},"ó":{"ha":636,"x_min":54,"x_max":575,"o":"m 401 130 l 401 174 l 445 174 l 445 477 l 401 477 l 401 521 l 228 521 l 228 477 l 184 477 l 184 174 l 228 174 l 228 130 l 401 130 m 228 0 l 228 43 l 141 43 l 141 87 l 98 87 l 98 174 l 54 174 l 54 477 l 98 477 l 98 564 l 141 564 l 141 608 l 228 608 l 228 651 l 401 651 l 401 608 l 488 608 l 488 564 l 532 564 l 532 477 l 575 477 l 575 174 l 532 174 l 532 87 l 488 87 l 488 43 l 401 43 l 401 0 l 228 0 m 271 738 l 271 781 l 315 781 l 315 825 l 358 825 l 358 868 l 488 868 l 488 825 l 445 825 l 445 781 l 401 781 l 401 738 l 271 738 z "},"ô":{"ha":650,"x_min":64,"x_max":585,"o":"m 411 130 l 411 174 l 454 174 l 454 477 l 411 477 l 411 521 l 237 521 l 237 477 l 194 477 l 194 174 l 237 174 l 237 130 l 411 130 m 237 0 l 237 43 l 151 43 l 151 87 l 107 87 l 107 174 l 64 174 l 64 477 l 107 477 l 107 564 l 151 564 l 151 608 l 237 608 l 237 651 l 411 651 l 411 608 l 498 608 l 498 564 l 541 564 l 541 477 l 585 477 l 585 174 l 541 174 l 541 87 l 498 87 l 498 43 l 411 43 l 411 0 l 237 0 m 107 694 l 107 738 l 151 738 l 151 781 l 194 781 l 194 825 l 237 825 l 237 868 l 411 868 l 411 825 l 454 825 l 454 781 l 498 781 l 498 738 l 541 738 l 541 694 l 454 694 l 454 738 l 368 738 l 368 781 l 281 781 l 281 738 l 194 738 l 194 694 l 107 694 z "},"õ":{"ha":667,"x_min":66,"x_max":587,"o":"m 414 130 l 414 174 l 457 174 l 457 477 l 414 477 l 414 521 l 240 521 l 240 477 l 197 477 l 197 174 l 240 174 l 240 130 l 414 130 m 240 0 l 240 43 l 153 43 l 153 87 l 110 87 l 110 174 l 66 174 l 66 477 l 110 477 l 110 564 l 153 564 l 153 608 l 240 608 l 240 651 l 414 651 l 414 608 l 500 608 l 500 564 l 544 564 l 544 477 l 587 477 l 587 174 l 544 174 l 544 87 l 500 87 l 500 43 l 414 43 l 414 0 l 240 0 m 370 694 l 370 738 l 327 738 l 327 781 l 283 781 l 283 825 l 197 825 l 197 781 l 153 781 l 153 738 l 110 738 l 110 825 l 153 825 l 153 868 l 197 868 l 197 911 l 327 911 l 327 868 l 370 868 l 370 825 l 414 825 l 414 781 l 500 781 l 500 825 l 544 825 l 544 868 l 587 868 l 587 781 l 544 781 l 544 738 l 500 738 l 500 694 l 370 694 z "},"ö":{"ha":643,"x_min":61,"x_max":582,"o":"m 408 130 l 408 174 l 452 174 l 452 477 l 408 477 l 408 521 l 235 521 l 235 477 l 191 477 l 191 174 l 235 174 l 235 130 l 408 130 m 235 0 l 235 43 l 148 43 l 148 87 l 104 87 l 104 174 l 61 174 l 61 477 l 104 477 l 104 564 l 148 564 l 148 608 l 235 608 l 235 651 l 408 651 l 408 608 l 495 608 l 495 564 l 538 564 l 538 477 l 582 477 l 582 174 l 538 174 l 538 87 l 495 87 l 495 43 l 408 43 l 408 0 l 235 0 m 148 738 l 148 868 l 278 868 l 278 738 l 148 738 m 365 738 l 365 868 l 495 868 l 495 738 l 365 738 z "},"÷":{"ha":629,"x_min":26,"x_max":590,"o":"m 243 87 l 243 217 l 373 217 l 373 87 l 243 87 m 26 304 l 26 391 l 590 391 l 590 304 l 26 304 m 243 477 l 243 608 l 373 608 l 373 477 l 243 477 z "},"ø":{"ha":738,"x_min":41,"x_max":692,"o":"m 431 130 l 431 174 l 475 174 l 475 347 l 431 347 l 431 304 l 388 304 l 388 260 l 345 260 l 345 217 l 301 217 l 301 174 l 258 174 l 258 130 l 431 130 m 258 217 l 258 260 l 301 260 l 301 304 l 345 304 l 345 347 l 388 347 l 388 391 l 431 391 l 431 434 l 475 434 l 475 477 l 431 477 l 431 521 l 258 521 l 258 477 l 214 477 l 214 217 l 258 217 m 41 -43 l 41 43 l 84 43 l 84 87 l 127 87 l 127 174 l 84 174 l 84 477 l 127 477 l 127 564 l 171 564 l 171 608 l 258 608 l 258 651 l 431 651 l 431 608 l 518 608 l 518 564 l 605 564 l 605 608 l 648 608 l 648 651 l 692 651 l 692 564 l 648 564 l 648 521 l 605 521 l 605 174 l 562 174 l 562 87 l 518 87 l 518 43 l 431 43 l 431 0 l 258 0 l 258 43 l 127 43 l 127 0 l 84 0 l 84 -43 l 41 -43 z "},"ù":{"ha":658,"x_min":69,"x_max":590,"o":"m 156 0 l 156 43 l 113 43 l 113 87 l 69 87 l 69 651 l 199 651 l 199 174 l 243 174 l 243 130 l 373 130 l 373 174 l 416 174 l 416 217 l 460 217 l 460 651 l 590 651 l 590 0 l 460 0 l 460 87 l 416 87 l 416 43 l 373 43 l 373 0 l 156 0 m 286 738 l 286 781 l 243 781 l 243 825 l 199 825 l 199 868 l 330 868 l 330 825 l 373 825 l 373 781 l 416 781 l 416 738 l 286 738 z "},"ú":{"ha":658,"x_min":68,"x_max":589,"o":"m 155 0 l 155 43 l 111 43 l 111 87 l 68 87 l 68 651 l 198 651 l 198 174 l 241 174 l 241 130 l 372 130 l 372 174 l 415 174 l 415 217 l 458 217 l 458 651 l 589 651 l 589 0 l 458 0 l 458 87 l 415 87 l 415 43 l 372 43 l 372 0 l 155 0 m 241 738 l 241 781 l 285 781 l 285 825 l 328 825 l 328 868 l 458 868 l 458 825 l 415 825 l 415 781 l 372 781 l 372 738 l 241 738 z "},"û":{"ha":663,"x_min":71,"x_max":591,"o":"m 157 0 l 157 43 l 114 43 l 114 87 l 71 87 l 71 651 l 201 651 l 201 174 l 244 174 l 244 130 l 374 130 l 374 174 l 418 174 l 418 217 l 461 217 l 461 651 l 591 651 l 591 0 l 461 0 l 461 87 l 418 87 l 418 43 l 374 43 l 374 0 l 157 0 m 114 694 l 114 738 l 157 738 l 157 781 l 201 781 l 201 825 l 244 825 l 244 868 l 418 868 l 418 825 l 461 825 l 461 781 l 505 781 l 505 738 l 548 738 l 548 694 l 461 694 l 461 738 l 374 738 l 374 781 l 288 781 l 288 738 l 201 738 l 201 694 l 114 694 z "},"ü":{"ha":662,"x_min":71,"x_max":591,"o":"m 157 0 l 157 43 l 114 43 l 114 87 l 71 87 l 71 651 l 201 651 l 201 174 l 244 174 l 244 130 l 374 130 l 374 174 l 418 174 l 418 217 l 461 217 l 461 651 l 591 651 l 591 0 l 461 0 l 461 87 l 418 87 l 418 43 l 374 43 l 374 0 l 157 0 m 157 738 l 157 868 l 288 868 l 288 738 l 157 738 m 374 738 l 374 868 l 505 868 l 505 738 l 374 738 z "},"ý":{"ha":621,"x_min":49,"x_max":570,"o":"m 179 -260 l 179 -130 l 222 -130 l 222 0 l 266 0 l 266 87 l 222 87 l 222 174 l 179 174 l 179 260 l 136 260 l 136 391 l 92 391 l 92 521 l 49 521 l 49 651 l 179 651 l 179 521 l 222 521 l 222 391 l 266 391 l 266 260 l 309 260 l 309 217 l 353 217 l 353 391 l 396 391 l 396 521 l 439 521 l 439 651 l 570 651 l 570 521 l 526 521 l 526 391 l 483 391 l 483 260 l 439 260 l 439 130 l 396 130 l 396 0 l 353 0 l 353 -130 l 309 -130 l 309 -260 l 179 -260 m 222 738 l 222 781 l 266 781 l 266 825 l 309 825 l 309 868 l 439 868 l 439 825 l 396 825 l 396 781 l 353 781 l 353 738 l 222 738 z "},"þ":{"ha":632,"x_min":72,"x_max":593,"o":"m 419 217 l 419 260 l 463 260 l 463 347 l 419 347 l 419 391 l 202 391 l 202 217 l 419 217 m 72 0 l 72 651 l 202 651 l 202 477 l 506 477 l 506 434 l 549 434 l 549 391 l 593 391 l 593 217 l 549 217 l 549 174 l 506 174 l 506 130 l 202 130 l 202 0 l 72 0 z "},"ÿ":{"ha":628,"x_min":53,"x_max":574,"o":"m 183 -260 l 183 -130 l 227 -130 l 227 0 l 270 0 l 270 87 l 227 87 l 227 174 l 183 174 l 183 260 l 140 260 l 140 391 l 96 391 l 96 521 l 53 521 l 53 651 l 183 651 l 183 521 l 227 521 l 227 391 l 270 391 l 270 260 l 313 260 l 313 217 l 357 217 l 357 391 l 400 391 l 400 521 l 444 521 l 444 651 l 574 651 l 574 521 l 530 521 l 530 391 l 487 391 l 487 260 l 444 260 l 444 130 l 400 130 l 400 0 l 357 0 l 357 -130 l 313 -130 l 313 -260 l 183 -260 m 140 738 l 140 868 l 270 868 l 270 738 l 140 738 m 357 738 l 357 868 l 487 868 l 487 738 l 357 738 z "},"œ":{"ha":1025,"x_min":57,"x_max":968,"o":"m 404 130 l 404 174 l 448 174 l 448 477 l 404 477 l 404 521 l 231 521 l 231 477 l 187 477 l 187 174 l 231 174 l 231 130 l 404 130 m 838 391 l 838 477 l 795 477 l 795 521 l 621 521 l 621 477 l 578 477 l 578 391 l 838 391 m 231 0 l 231 43 l 144 43 l 144 87 l 100 87 l 100 174 l 57 174 l 57 477 l 100 477 l 100 564 l 144 564 l 144 608 l 231 608 l 231 651 l 404 651 l 404 608 l 491 608 l 491 564 l 534 564 l 534 608 l 621 608 l 621 651 l 795 651 l 795 608 l 882 608 l 882 564 l 925 564 l 925 477 l 968 477 l 968 304 l 578 304 l 578 174 l 621 174 l 621 130 l 795 130 l 795 174 l 838 174 l 838 217 l 968 217 l 968 130 l 925 130 l 925 87 l 882 87 l 882 43 l 795 43 l 795 0 l 621 0 l 621 43 l 534 43 l 534 87 l 491 87 l 491 43 l 404 43 l 404 0 l 231 0 z "},"š":{"ha":590,"x_min":76,"x_max":510,"o":"m 163 0 l 163 43 l 119 43 l 119 87 l 76 87 l 76 174 l 119 174 l 119 217 l 163 217 l 163 174 l 206 174 l 206 130 l 250 130 l 250 87 l 336 87 l 336 130 l 380 130 l 380 217 l 336 217 l 336 260 l 293 260 l 293 304 l 206 304 l 206 347 l 163 347 l 163 391 l 119 391 l 119 434 l 76 434 l 76 564 l 119 564 l 119 608 l 163 608 l 163 651 l 423 651 l 423 608 l 467 608 l 467 477 l 380 477 l 380 521 l 336 521 l 336 564 l 250 564 l 250 521 l 206 521 l 206 477 l 250 477 l 250 434 l 293 434 l 293 391 l 380 391 l 380 347 l 423 347 l 423 304 l 467 304 l 467 260 l 510 260 l 510 87 l 467 87 l 467 43 l 423 43 l 423 0 l 163 0 m 206 694 l 206 738 l 163 738 l 163 781 l 119 781 l 119 825 l 76 825 l 76 868 l 163 868 l 163 825 l 250 825 l 250 781 l 336 781 l 336 825 l 423 825 l 423 868 l 510 868 l 510 825 l 467 825 l 467 781 l 423 781 l 423 738 l 380 738 l 380 694 l 206 694 z "},"Ÿ":{"ha":815,"x_min":-3,"x_max":735,"o":"m 301 0 l 301 304 l 258 304 l 258 391 l 214 391 l 214 477 l 171 477 l 171 564 l 127 564 l 127 651 l 84 651 l 84 738 l 41 738 l 41 825 l -3 825 l -3 868 l 171 868 l 171 781 l 214 781 l 214 694 l 258 694 l 258 608 l 301 608 l 301 521 l 345 521 l 345 434 l 388 434 l 388 521 l 431 521 l 431 608 l 475 608 l 475 694 l 518 694 l 518 781 l 562 781 l 562 868 l 735 868 l 735 825 l 692 825 l 692 738 l 648 738 l 648 651 l 605 651 l 605 564 l 562 564 l 562 477 l 518 477 l 518 391 l 475 391 l 475 304 l 431 304 l 431 0 l 301 0 m 171 955 l 171 1085 l 301 1085 l 301 955 l 171 955 m 431 955 l 431 1085 l 562 1085 l 562 955 l 431 955 z "},"ẞ":{"ha":779,"x_min":75,"x_max":726,"o":"m 75 0 l 75 694 l 118 694 l 118 781 l 161 781 l 161 825 l 248 825 l 248 868 l 552 868 l 552 825 l 595 825 l 595 738 l 639 738 l 639 521 l 595 521 l 595 477 l 552 477 l 552 434 l 595 434 l 595 391 l 639 391 l 639 347 l 682 347 l 682 304 l 726 304 l 726 130 l 682 130 l 682 87 l 639 87 l 639 43 l 595 43 l 595 0 l 248 0 l 248 130 l 552 130 l 552 174 l 595 174 l 595 260 l 552 260 l 552 304 l 509 304 l 509 347 l 422 347 l 422 391 l 378 391 l 378 477 l 422 477 l 422 521 l 465 521 l 465 564 l 509 564 l 509 694 l 465 694 l 465 738 l 248 738 l 248 694 l 205 694 l 205 0 l 75 0 z "},"—":{"ha":914,"x_min":41,"x_max":865,"o":"m 41 434 l 41 521 l 865 521 l 865 434 l 41 434 z "},"‘":{"ha":254,"x_min":43,"x_max":174,"o":"m 43 651 l 43 825 l 87 825 l 87 868 l 174 868 l 174 825 l 130 825 l 130 738 l 174 738 l 174 651 l 43 651 z "},"’":{"ha":254,"x_min":43,"x_max":174,"o":"m 43 651 l 43 694 l 87 694 l 87 781 l 43 781 l 43 868 l 174 868 l 174 694 l 130 694 l 130 651 l 43 651 z "},"‚":{"ha":244,"x_min":37,"x_max":167,"o":"m 37 -130 l 37 -87 l 80 -87 l 80 -43 l 123 -43 l 123 0 l 37 0 l 37 130 l 167 130 l 167 -87 l 123 -87 l 123 -130 l 37 -130 z "},"‛":{"ha":254,"x_min":43,"x_max":174,"o":"m 87 608 l 87 651 l 43 651 l 43 868 l 174 868 l 174 738 l 87 738 l 87 694 l 130 694 l 130 651 l 174 651 l 174 608 l 87 608 z "},"“":{"ha":427,"x_min":43,"x_max":347,"o":"m 43 651 l 43 825 l 87 825 l 87 868 l 174 868 l 174 825 l 130 825 l 130 738 l 174 738 l 174 651 l 43 651 m 217 651 l 217 825 l 260 825 l 260 868 l 347 868 l 347 825 l 304 825 l 304 738 l 347 738 l 347 651 l 217 651 z "},"”":{"ha":427,"x_min":43,"x_max":347,"o":"m 43 651 l 43 694 l 87 694 l 87 781 l 43 781 l 43 868 l 174 868 l 174 694 l 130 694 l 130 651 l 43 651 m 217 651 l 217 694 l 260 694 l 260 781 l 217 781 l 217 868 l 347 868 l 347 694 l 304 694 l 304 651 l 217 651 z "},"„":{"ha":461,"x_min":37,"x_max":384,"o":"m 37 -130 l 37 -87 l 80 -87 l 80 -43 l 123 -43 l 123 0 l 37 0 l 37 130 l 167 130 l 167 -87 l 123 -87 l 123 -130 l 37 -130 m 254 -130 l 254 -87 l 297 -87 l 297 -43 l 340 -43 l 340 0 l 254 0 l 254 130 l 384 130 l 384 -87 l 340 -87 l 340 -130 l 254 -130 z "},"†":{"ha":472,"x_min":45,"x_max":392,"o":"m 175 0 l 175 608 l 45 608 l 45 694 l 175 694 l 175 868 l 262 868 l 262 694 l 392 694 l 392 608 l 262 608 l 262 0 l 175 0 z "},"•":{"ha":313,"x_min":47,"x_max":264,"o":"m 91 391 l 91 434 l 47 434 l 47 564 l 91 564 l 91 608 l 221 608 l 221 564 l 264 564 l 264 434 l 221 434 l 221 391 l 91 391 z "},"…":{"ha":579,"x_min":35,"x_max":601,"o":"m 35 0 l 35 130 l 165 130 l 165 0 l 35 0 m 252 0 l 252 130 l 382 130 l 382 0 l 252 0 m 469 0 l 469 130 l 600 130 l 600 0 l 469 0 z "},"‹":{"ha":594,"x_min":28,"x_max":506,"o":"m 463 0 l 463 43 l 419 43 l 419 87 l 376 87 l 376 130 l 332 130 l 332 174 l 289 174 l 289 217 l 245 217 l 245 260 l 202 260 l 202 304 l 159 304 l 159 347 l 115 347 l 115 391 l 72 391 l 72 434 l 28 434 l 28 521 l 72 521 l 72 564 l 115 564 l 115 608 l 159 608 l 159 651 l 202 651 l 202 694 l 245 694 l 245 738 l 289 738 l 289 781 l 332 781 l 332 825 l 376 825 l 376 868 l 419 868 l 419 911 l 463 911 l 463 955 l 506 955 l 506 868 l 463 868 l 463 825 l 419 825 l 419 781 l 376 781 l 376 738 l 332 738 l 332 694 l 289 694 l 289 651 l 245 651 l 245 608 l 202 608 l 202 564 l 159 564 l 159 521 l 115 521 l 115 434 l 159 434 l 159 391 l 202 391 l 202 347 l 245 347 l 245 304 l 289 304 l 289 260 l 332 260 l 332 217 l 376 217 l 376 174 l 419 174 l 419 130 l 463 130 l 463 87 l 506 87 l 506 0 l 463 0 z "},"›":{"ha":564,"x_min":47,"x_max":525,"o":"m 47 0 l 47 87 l 91 87 l 91 130 l 134 130 l 134 174 l 178 174 l 178 217 l 221 217 l 221 260 l 264 260 l 264 304 l 308 304 l 308 347 l 351 347 l 351 391 l 395 391 l 395 434 l 438 434 l 438 521 l 395 521 l 395 564 l 351 564 l 351 608 l 308 608 l 308 651 l 264 651 l 264 694 l 221 694 l 221 738 l 178 738 l 178 781 l 134 781 l 134 825 l 91 825 l 91 868 l 47 868 l 47 955 l 91 955 l 91 911 l 134 911 l 134 868 l 178 868 l 178 825 l 221 825 l 221 781 l 264 781 l 264 738 l 308 738 l 308 694 l 351 694 l 351 651 l 395 651 l 395 608 l 438 608 l 438 564 l 481 564 l 481 521 l 525 521 l 525 434 l 481 434 l 481 391 l 438 391 l 438 347 l 395 347 l 395 304 l 351 304 l 351 260 l 308 260 l 308 217 l 264 217 l 264 174 l 221 174 l 221 130 l 178 130 l 178 87 l 134 87 l 134 43 l 91 43 l 91 0 l 47 0 z "},"€":{"ha":972,"x_min":45,"x_max":913,"o":"m 435 0 l 435 43 l 305 43 l 305 87 l 262 87 l 262 130 l 218 130 l 218 174 l 175 174 l 175 260 l 132 260 l 132 304 l 45 304 l 45 391 l 132 391 l 132 477 l 45 477 l 45 564 l 132 564 l 132 608 l 175 608 l 175 694 l 218 694 l 218 738 l 262 738 l 262 781 l 305 781 l 305 825 l 435 825 l 435 868 l 652 868 l 652 825 l 783 825 l 783 781 l 826 781 l 826 694 l 869 694 l 869 651 l 913 651 l 913 608 l 739 608 l 739 651 l 696 651 l 696 694 l 609 694 l 609 738 l 479 738 l 479 694 l 392 694 l 392 651 l 349 651 l 349 608 l 305 608 l 305 564 l 652 564 l 652 477 l 262 477 l 262 391 l 652 391 l 652 304 l 305 304 l 305 260 l 349 260 l 349 217 l 392 217 l 392 174 l 479 174 l 479 130 l 609 130 l 609 174 l 696 174 l 696 217 l 739 217 l 739 260 l 913 260 l 913 217 l 869 217 l 869 174 l 826 174 l 826 87 l 783 87 l 783 43 l 652 43 l 652 0 l 435 0 z "},"™":{"ha":1036,"x_min":1,"x_max":956,"o":"m 175 304 l 175 781 l 1 781 l 1 868 l 435 868 l 435 781 l 262 781 l 262 304 l 175 304 m 479 304 l 479 868 l 566 868 l 566 781 l 609 781 l 609 738 l 652 738 l 652 651 l 696 651 l 696 564 l 739 564 l 739 651 l 783 651 l 783 738 l 826 738 l 826 781 l 869 781 l 869 868 l 956 868 l 956 304 l 869 304 l 869 651 l 826 651 l 826 564 l 783 564 l 783 477 l 739 477 l 739 391 l 696 391 l 696 477 l 652 477 l 652 564 l 609 564 l 609 651 l 566 651 l 566 304 l 479 304 z "},"ﬀ":{"ha":817,"x_min":57,"x_max":751,"o":"m 144 0 l 144 521 l 57 521 l 57 651 l 144 651 l 144 781 l 187 781 l 187 825 l 231 825 l 231 868 l 534 868 l 621 868 l 751 868 l 751 781 l 621 781 l 621 738 l 578 738 l 578 651 l 708 651 l 708 521 l 578 521 l 578 0 l 448 0 l 448 521 l 317 521 l 274 521 l 274 0 l 144 0 m 448 651 l 448 781 l 317 781 l 317 738 l 274 738 l 274 651 l 317 651 l 448 651 z "},"ﬁ":{"ha":699,"x_min":54,"x_max":618,"o":"m 488 0 l 488 651 l 618 651 l 618 0 l 488 0 m 488 738 l 488 868 l 618 868 l 618 738 l 488 738 m 141 0 l 141 521 l 54 521 l 54 651 l 141 651 l 141 781 l 184 781 l 184 825 l 228 825 l 228 868 l 445 868 l 445 781 l 315 781 l 315 738 l 271 738 l 271 651 l 401 651 l 401 521 l 271 521 l 271 0 l 141 0 z "},"ﬂ":{"ha":699,"x_min":54,"x_max":618,"o":"m 141 0 l 141 521 l 54 521 l 54 651 l 141 651 l 141 781 l 184 781 l 184 825 l 228 825 l 228 868 l 445 868 l 532 868 l 532 825 l 575 825 l 575 781 l 618 781 l 618 0 l 488 0 l 488 738 l 445 738 l 445 781 l 315 781 l 315 738 l 271 738 l 271 651 l 401 651 l 401 521 l 271 521 l 271 0 l 141 0 z "}}}
